<?xml version="1.0" encoding="utf-8"?>
<!-- Generator: Adobe Illustrator 24.3.0, SVG Export Plug-In . SVG Version: 6.00 Build 0)  -->
<svg version="1.1" id="Layer_1" xmlns="http://www.w3.org/2000/svg" xmlns:xlink="http://www.w3.org/1999/xlink" x="0px" y="0px"
	 viewBox="0 0 360 360" style="enable-background:new 0 0 360 360;" xml:space="preserve">
<style type="text/css">
	.st0{fill:#004438;}
	.st1{clip-path:url(#SVGID_2_);}
	.st2{clip-path:url(#SVGID_4_);fill:#999A66;}
	.st3{clip-path:url(#SVGID_4_);fill:#9BAE88;}
	.st4{clip-path:url(#SVGID_4_);fill:#FFFFFF;}
	.st5{clip-path:url(#SVGID_4_);fill:#004833;}
	.st6{clip-path:url(#SVGID_4_);fill:none;stroke:#FFFFFF;stroke-width:0.4539;}
</style>
<rect x="-9" y="-9" class="st0" width="378" height="376.83"/>
<g id="Vector_Smart_Object_1_">
	<g>
		<defs>
			<rect id="SVGID_1_" x="24.35" y="24.35" width="311.3" height="311.3"/>
		</defs>
		<clipPath id="SVGID_2_">
			<use xlink:href="#SVGID_1_"  style="overflow:visible;"/>
		</clipPath>
		<g class="st1">
			<defs>
				<rect id="SVGID_3_" x="24.35" y="24.35" width="311.3" height="311.3"/>
			</defs>
			<clipPath id="SVGID_4_">
				<use xlink:href="#SVGID_3_"  style="overflow:visible;"/>
			</clipPath>
			<path class="st2" d="M181.47,254.14l-0.41,1.68c0.34,0.59,0.92,1.26,1.83,1c0.59-0.41,1.26-0.75,1.18-1.67
				C183.48,254.23,182.47,254.07,181.47,254.14 M184.07,249.39l0.4,0.58c0.09-0.09,0.26-0.17,0.18-0.42
				C184.56,249.3,184.23,249.39,184.07,249.39 M193.67,249.14c-2.41,1.67-6.35,1.25-7.43,4.43c-0.25,2,0.91,4.02,2.26,5.44
				c3.75,0.16,7.68,1.5,12.03,0.99c0.91-0.49,2.51-1.34,1.76-2.59c-2.02-2.5-5.78,0.42-7.61-2.26l0.42-0.57
				c2.59,0.08,5.6,0.83,8.02-0.59c1.17-2.02-2.1-2.66-2.18-4.43c-1.75-0.5-3.59-0.08-4.84,1.25
				C195.09,250.3,194.92,249.14,193.67,249.14 M226.02,244.79c0,0.58-0.17,1.33,0.33,1.75c0.67,0.09,1.17-0.07,1.67-0.17
				c0.84-0.49,2.1-1.25,2.17-2.41C229.68,241.61,227.11,243.87,226.02,244.79 M199.52,241.11c-3.35,0.75-6.35,2.42-9.27,4.26
				l-1.75-1.41c-2.68,0.42-5.09,2.08-6.86,4.17l-0.99,4.02c0.25,1,1.33,0.66,2.01,1c1.25-0.07,1.75-1.09,2.42-2.01
				c3.68-0.75,6.44-4.25,10.44-3.59c0.92,0.76,2.01,0.93,3.17,0.83c3.27-0.33,1.34-4.17,3.01-5.84
				C201.53,241.53,200.36,241.28,199.52,241.11 M232.37,238.52c0.49-0.74,1.25-1.42,1.25-2.43
				C232.78,236.44,231.86,237.77,232.37,238.52 M137.76,228.91c-0.83,1-3.08,1.58-2.25,3.59c0.58,1.25,1.84,1.51,2.84,2.25
				c-0.09,0.92-0.33,1.76,0.58,2.34c0.84,0.67,1.93,1.25,3.01,0.84c0.67-0.16,1.85-0.93,1.43-2.01c0.25-2.01-2.09-1.24-3.01-2.01
				c0-0.75,0.92-1.08,0.59-2.01C139.61,231,139.61,228.91,137.76,228.91 M232.19,227.49c-3.59,0.33-5.09,4.26-7.01,6.85
				c-0.68,0.25-0.76-1.09-1.85-0.59c-1.08,2.26-4.09,3.35-4.34,6.02c0.74,1.24,1.82,0,2.76,1.01l-0.42,0.32
				c-3.51-1.09-6.27,1.09-9.2,2.01c-0.74-0.49-0.58-1.5-0.58-2.33c-2.01-2.61-3.35,1.33-5.44,0.98c-1.51,1.76-4.51,3.35-3.17,6.03
				c1.92,0.92,3-1.67,4.76-1.67c3.26,4.26-3,1.84-4.17,3.68c-0.76,1.24,0.41,2.42,1.17,3.17c4.51,0.68,9.35-0.08,13.03-2.42
				c2.17-3.25-3-1-3-3.42c2.68-0.34,6.01-0.49,8.02-3c0.58-1.17,0.76-2.84-0.59-3.34c4.6-2.02,6.7-6.7,10.45-9.87l0.17-2.59
				L232.19,227.49z M119.47,225.74c-1.51-0.09-1.35,1.6-1.59,2.59c-0.25,3.77,3.84,4.68,6.02,6.44c-0.66,1.33-2.17,0.5-3.01,1.59
				c-0.58,0.59,0.17,1.17,0.17,1.76c4.26,2,8.94,6.27,14.03,4.01c1.09,2.42,3.84,2.5,5.86,3.43c-0.42,0.99-2.51,1.24-2.02,2.82
				c1.09,1.69,2.93,2.1,4.86,2.18c2.34-0.17,1.83-3.84,4.76-2.75c1.09-0.41,1.25-1.51,1.42-2.43c-1.59-1.49-3.84-2-6.18-2
				c-1.69-1.17-0.76-4.18-3.43-4.01c-1.84-0.25-4.27-0.59-5.43,1c-2.43-1.5-5.6-1.18-8.03-2.59c-2.34-1.68,0.84-2.18,1.43-3.26
				c1.75,0.18,2.92,2.01,4.43,3.01c1,0.5,2.26,0.17,2.76-0.75c0.84-1.59-0.42-2.84-1.17-4.02c-2.25-1.83-4.34-3.91-7.27-4.24
				C123.48,233.76,123.57,224.57,119.47,225.74 M248.4,213.71c-3.59,0.74-5.27,4.34-6.18,7.6c-2.68-0.5,0.09-2.84-0.84-4.6
				c0-0.75-0.84-0.66-1.34-0.66c-2.67,2.42-3.34,6.01-5.27,8.85c-1.08,1.43-0.83,3.17-0.58,4.6c1.51,1,1.92-0.84,2.85-1.59
				c2.84,1,4.34-3.18,7.36-2.01c-0.26,1.77-1.85,3.18-2.36,4.6c-0.58-0.26-0.49-0.92-1-1.17c-3.41,0.09-5.08,3.68-6.85,5.77
				c-1.33-1.08,0.84-2.1,0.18-3.19c-3.76,1.94-7.02,6.2-8.62,10.03c0.34,0.18,0.34,0.59,0.59,0.84c2.67,0.51,4.43-2.25,5.68-3.84
				c1.42,2.09-1.08,3.84-0.42,5.86c2.01-0.17,4.01-1.92,5.76-3.26c0.92-1.51-0.91-1.51-1.58-2.42c3.09-1.33,4.26-4.68,6.02-7.19
				c2.5,1.84,3.09-2.09,5.01-3c0.5-2.76,3.75-4.68,2.84-7.85c-1.34-0.76-2.59,1.42-3.84,0.41c0.92-2.42,4.01-3.35,4.27-6.01
				C249.99,214.45,249.49,213.71,248.4,213.71 M244.65,204.27c-0.59,2.92-0.34,6.01-1.84,8.76c0.33,0.69,0.66,1.93,1.84,1.43
				c2.41-1.67,4.34-4.26,3.75-7.6C248.07,205.09,246.15,204.51,244.65,204.27 M103.85,199.24c-0.68,1.93,1.41,3.77,2.17,5.44
				c0.84-0.75,0.16-2.42,0.25-3.67C106.02,199.83,104.76,199.66,103.85,199.24 M114.29,195.24c-0.84,0.16-1.84,0.25-2.42,1.17
				c-0.51,3.51,0.67,8.27,1.84,11.29c0.75,0.41,1.58,0,2.17-0.42l0.18-10.03C115.63,196.49,115.47,195.15,114.29,195.24
				 M250.41,194.24c-0.51-0.74-1-0.08-1.58,0c-1,2.76-3.26,5-2.42,8.59c0.66,1.85,2.42,0.68,3.68,1.01l-0.26,5.43
				c-0.17,1.17,0.42,2.26,1.84,1.76c1.51-2.35,2.09-5.35,1.75-8.21c-0.33-1.16-1.75-1.33-2.59-1.16c0-1.24,1.17-2.01,1.01-3.25
				C251.41,196.99,251.16,195.32,250.41,194.24 M101,186.39c-1.41,0.84-1.33,2.33-1.58,3.58c-0.68,2.01,2.41,5.02-1.17,5.43
				c-1.58,3.77,1.67,6.45,3.43,9.28c0.42,4.6,4.77,1.09,7.02,3.02c1.58-0.59,2.26-2.26,2.17-3.85c-2.17-2.67,0.09-5.84-1.17-8.6
				c-0.92-1.51-2.42-2.5-4.26-2.02c-1.77-0.66-1-2.76-1.18-4.25C103.51,187.89,103.01,185.8,101,186.39 M107.02,183.37
				c-1.33-0.83-2.34,0.51-2.59,1.6c0.33,2.67,0.83,5.5,3,7.27c1.34,0.84,3.09,0.98,4.26-0.26c0.84-1.51-1.42-2.84-2.26-4.18
				L107.02,183.37z M104.02,178.95c-0.84,0.75-0.84,1.75-0.75,2.83c0.33,0.75,1.17,0.59,1.76,0.59c0.99-0.59,1.16-1.51,0.99-2.58
				C105.85,178.87,104.76,178.95,104.02,178.95 M255.68,173.35c-1.92,0.09-2.01,1.83-2.42,3.26c-0.41,1.75,0.92,3.34,0,4.76
				c-2.09-1.01,0.09-4.17-2.59-5.01c-0.34,0.42-0.92,0.75-1,1.26c-1.08,5.35-1.76,11.52,1.42,16.37c1.01,0.75,2.17,1.42,3.18,0.25
				c0.59-1.34-0.09-2.68-1-3.6c0.09-1.25-1.08-2.84,0.17-3.66c1,1.24,2.17-0.5,2.67-0.59l0.58,2.41c0.76,0.59,1.51-0.16,2.18-0.59
				c0.84,1-0.67,2.34,0,3.59c5.1-1.34,2-7.35,3.42-11.19c-2.66-2.33-2.34,2.75-4.59,2.59c-0.67-0.25-0.34-0.92-0.42-1.43
				c1.17-1.43,1.66-3.17,1.42-5.17C257.84,175.43,257.43,173.43,255.68,173.35 M100.42,170.93c-0.59,0.33-0.59,1.33,0,1.67
				c0.25,0,0.5,0,0.58-0.25C101.43,171.93,101.25,170.84,100.42,170.93 M112.87,157.3c-2.43,1.35-1.93,5.02-2.02,7.44l1.43,0.16
				c2.43-1.84,4.51-5.09,3.59-8.18C115.04,154.55,113.7,156.56,112.87,157.3 M246.07,151.53c-2,3.18-4.02,7.86-1.41,11.37
				c-0.34,0.5-0.85,0.75-1.43,0.66c-0.09,1,0.08,1.84,0.15,2.76c2.27,2.77,4.52,6.78,8.46,5.44c1.58-2.35-2.51-3.35-2.77-5.44
				c0.59-3.17-2.17-5.17-1.42-8.18c-0.07-2.25,2.43-1,3.59-1.58v-4.03C250.66,150.37,247.58,150.37,246.07,151.53 M113.04,128.81
				c-1.59,1.83-3.6,3.85-4.18,6.27c-0.5,1.83-0.08,3.84,1.17,5.17c1.92,0.42,2.17-2.59,3.85-2.17c1.33,3.84-2.85,2.34-4.18,4.42
				c-0.59-0.5-1.25-0.75-2-0.66c-1.92,2.75-5.51,5.51-4.02,8.86c-0.82,1.42-1.42-0.42-2.42,0c-2.34,2.84-3.17,7.77-1.58,11.44
				c3.76-0.25,1.33-4.51,3.6-6.43c3.84,0.84,0.49,3.92,0.99,6.18c-0.59,1.09-2.17,0.5-2.83,1.66c-1.01,1.6-0.43,4.11-1.01,5.61
				c-0.92-0.17-0.5-1.25-1.17-1.6c-0.58,0-1.26-0.16-1.58,0.18c-2.35,4.6-0.18,10.19,1.32,14.62c0.93,0.75,2.26,0.34,3.01-0.41
				c0.67-1.01,0.5-2.61,0-3.6c0.59-0.91,1.51-1.83,2.67-1.75c4.27-0.84,1.09,3.75,3.18,5.02c0.59-0.08,1.43,0.16,1.58-0.41
				c1.26-3.94,0.25-6.86,0.25-11.05c-0.75-1.49,0.08-5.26-2.67-4.25c-0.84,1.25-1,3.18-0.58,4.67c0,1.09,1.83,2.69,0,3.35
				c-1.18-0.58-1.67-1.83-2.01-3c2.92-2.35-1.42-5.02,0.59-7.61c5.25-0.25,4.26-6.27,6.01-9.19c-0.75-1.92-0.91-4.84-3.76-4.84
				c0.17-2.18,2.1-3.77,2.76-5.6c0.25,0.25,0.67,0.42,0.67,0.83l2.17,0.17c5.84-1.59,9.19-7.43,10.44-12.88
				c-0.25-0.5-0.75-1.01-1.25-1.17c-0.84,0.43-2.17,1.25-2.01,2.42c-0.42,1.09-1.25,2.58-2.6,2.76c-1.67-2.76,4.6-3.77,2.43-7.02
				c-2.93-0.92-4.25,2.26-5.43,3.85c-0.5-0.68,0.17-1.86,0.25-2.84C114.78,128.89,113.88,128.72,113.04,128.81 M241.39,128.64
				c-1.58,2.09-0.34,5.35,0.42,7.6c-2.43-1.33-1.93,2.18-2.01,3.26c0.84,3,1.84,7.34,5.6,7.76c0.75-2.67,3.76,0.09,4.01-2.75
				c1.42,0.83-0.17,2.25,0.67,3.34c0.33,1.18,1.5,2,2.76,1.67c2.51-4.18-0.26-8.77-0.76-12.69c-0.67-0.83-1.18-2.26-2.43-2.35
				c-1.5,0.83,0.17,2.26,0.17,3.35c-0.41,0.4-0.67,0.9-1.17,1c-2.09-0.68-0.91-3.42-1.83-5.02
				C245.56,131.73,243.97,128.98,241.39,128.64 M128.91,124.63c-0.16,1.75-2.01,2.26-2.17,4.01c0.59,0.67,1.84,0.41,2.6,0.17
				c2.17-0.92,3.68-2.68,4.01-5.03C132.09,122.21,130,123.37,128.91,124.63 M135.93,116.19c-1.92,0.83-2.67,2.83-2.59,4.85
				c0.5,0.75,1.84,0.99,2.76,0.58c1.75-0.92,2.43-2.68,2.67-4.44C138.6,115.77,136.85,115.94,135.93,116.19 M232.37,115.02
				c-1.67-1.58-4.1-3.26-6.19-2.26c-0.08,1.17,0.08,2.17,0.59,3.01c1.18,1.09,3.68,2.01,3.25,3.84c-1.75-0.91-2.91-2.09-4.68-3.01
				c-0.92-0.07-3.59-1-3,1.18c0.17,3.27,3.68,3.84,5.85,5.44c0.08,1.49-1.59,0.42-2.17,1c-0.26,1.33,0.66,2,1.33,2.84
				c2.66,0.5,4.93,3.68,7.69,2.17c0.33-2.68-2.1-3.42-3.01-5.44c1.51-1.24,2.84,1.76,4.34,2.27c0.25,0.91-0.4,2-0.17,3.17
				c0.84,0.92,0.6,3.26,2.6,2.59c1.08,0,1.08-1.08,1.01-1.99c-2.01-1.77,2.34-4.18-1.18-5.6c0.76-2.18,1.51,1.5,3.19,0.83
				c0.83-0.16,1-1.27,0.59-1.83c-2.43-1.85-3.27-5.44-6.36-6.45c-1.33,0.25,0.09,2.35-1.26,2.43
				C234.2,117.69,232.78,116.6,232.37,115.02 M131.76,110.75c-2.6,0.76-2.42,3.69-4.01,5.27c-1.25,0.84-1.92-0.74-3.26-0.25
				c-2.67,2.17-3.6,5.6-3.43,8.86c2.18,0.84,1.67-2.34,3.43-2.6c1.33,2.67-4.18,4.26-2.17,7.02c0.75,0,1.91,0,2.58-0.83
				c0.84-3.68,7.86-4.93,5.61-9.79c0.25-0.74,0.99-0.99,1.59-1.25c1.75-1.66,3.67-3.25,3.84-5.58
				C135.18,110.17,133.09,111.01,131.76,110.75 M215.31,107.17c-0.83,3-4.1,0-5.35,1.84c-0.33,1.59,1.08,2.92,2.17,4.17
				c-0.33,0.34-0.58,0.69-1,0.84c-0.67,1,0.33,1.75,1,2.42c2.35,1.84,5.19,0,7.44-0.84c0.5-1.26-0.75-2.33-1.59-3.01
				c0.25-0.34,0.59-0.42,1.01-0.42c0.67-0.49,1.82-1.17,1.74-2.16C220.08,107.75,217.41,107.5,215.31,107.17 M144.79,104.74
				c-1.42,0.75-3.43,2.59-3.26,4.27c-2.34,1.25-0.42,3.5-0.76,5.44c1.17,2.5,3.76,0.24,5.6,0.32c0.84-0.75,2.76-0.67,2.6-2.33
				c-1.93-2.76,2.41-1.93,2.59-4.02c0.58-0.75,0.75-2.26-0.17-2.83c-2.84-0.67-5.09,0.84-6.85,3.01c-2.68-0.42,1.17-1.78,0.84-3.01
				L144.79,104.74z M149.39,104.16l5.44-0.77c1.58,3.42-4.52,5.61-1.85,9.04c-0.66,1.83-3,2.58-4.59,3.58
				c-3.01,2.69-8.18-2.25-9.45,3.43c-0.99,4.19-4.59,7.78-8.18,10.2c-2.42,1.16-5.85,1.33-6.01,4.84c-1.92,3.42-3.77,7.19-6.85,9.78
				l-0.59,1.42c-2-2.34-4.09,0.74-6.01,1.42c-1.42,2.67-0.09,5.1,1.17,7.2c3.6-0.67,3.43-5.02,4.43-7.45
				c1.67,1.52-0.59,3.35-0.17,5.27c-0.99,2.93,2.33,5.77-0.25,8.46c-0.09,1.83-0.75,4.09-2.76,5.17c-1.26,0.67-3.43,0.92-3.43,2.83
				c1.92,4.52,2.6,10.62-0.58,14.79c-1.67,3.35,2.93,4.11,3.01,7.02c6.84,4.1,5.35,13.88,4.34,20.48c1.76,1.59,4.77,1.5,5.43,4.18
				c0.41,1.74,0.5,4.25,2.84,4.43c1.92,0.5,4.68-0.34,5.43,2.25l0.59,1.34c-2.67-0.34-4.6-3.59-7.43-2.34
				c-0.59,1-1.58,2.25-0.42,3.35c2.26,3.26,6.26,4,9.61,5.42c0.66,0.25,1.5-0.34,1.84-0.99c-0.42-1.51-1.59-2.68-2.43-4.03
				c2.26-0.24,3.59,0.92,4.86,2.6c2.5,2.67,7.02,4.02,7.59,8.02l1.85,1.67c-1.17,0-2.17,0.59-2.67,1.58
				c-0.17,3.77,4.43,3.68,6.43,5.77c1.59,0.49,2.42-2.51,3.84-0.59c-1.25,0.34-2.34,1.42-1.59,2.84c0.34,0.59,0.76,1.17,1.18,1.75
				c-1.59,1.93-4.93-1.33-6.61,1.43c-0.49,0.58-0.84,1.49-0.41,2.26c2.01,1.99,5.93,1.08,8.19,0.74c-0.59,0.59-1.51,1.18-1.58,2.26
				c1.33,2.26,3.59,0.59,5.6,1.33c2.24-0.41,5.35,2.08,6.68-1.33c-0.92-3.5-6.6-1.26-6.44-5.42c0.76-1.27,2.76,0,3.18-1.85
				l-0.16-0.75c2,0.09,1.67,2.85,3.76,3.01c1,0.08,1.5-1,1.67-1.83c-1.43-3.18-4.6-6.11-7.29-8.19c-0.49-0.09-1.17,0-1.17,0.58
				c0.09,2.09,1.25,3.76,2,5.6c-1.82-0.59-3.84-1.25-5.25-2.43c0.5-0.76,1.67-0.08,1.84-1.18c0.25-1.33-1.08-1.93-1.84-2.84
				c-0.75-0.24-2.01-0.82-2.59,0.26l-0.76,1.33c-0.75-0.83-0.91-2.59-2.41-3c-1.01-0.34-2.26,0-3.02-1.01
				c1.25-0.51,2.76-3.01,4.43-1.17c1.17,0.93,2.26,2.25,4.01,2.01c0.76-0.93,1.83-1.59,3.01-1c4.01,2.51,8.02,6.43,9.78,10.6
				c2.34,1.68,5.6-0.49,8.02,0.26c-0.15,1.16-2.34,1.16-2.41,2.75c0,1.09,0.92,2.25,0,3.26c-1.5-1.25,0-5.68-3.34-4.68
				c-1.51,1.76-3.18,3.84-3,6.42c1,1.53,2.08,3.1,3.75,3.86c2.34,0.67,4.17-1.18,6.6-0.84c0.59-0.43,1.42-0.67,1.66-1.43
				c2.1-3.76-5.26-7.27,0.18-9.35c2.59-6.43,10.94-3.84,13.61-10.44c1.76,0.91-1.83,2.92,0.84,3.75c2-0.58,3.92-2.18,6.19-1.75
				c1.25,1.17,2.92,1.92,4.6,1.43c2.17-2.44,5.35-2.02,7.85-3.43c0.34,0.58,0.99,1.25,1.58,1.57c3.6,0.93,3.26-3.42,5.59-4.58
				c2.27-4.27,7.11-4.34,9.7-8.28c1.43-1.09,3.85-1.09,4.36-3.35c1.16-3.16,2.5-6.91,5.84-8.44c1.93-1.26,2.1-3.25,2.18-5.26
				c-0.17-3.33-0.34-6.61-0.59-10.01c1.08-1.09,3.17,1.24,3.84-1.01c-1.85-4.02,4.5-5.94,1.58-9.2c-1.33-4.58-0.17-9.35,1.17-13.87
				c0.09-2.93-3.51-3.09-5.02-5.35c-2.83-2.59-1.82-6.02-3.17-9.27c-0.25-1.42-1.24-2.93-0.41-4.18c0.84,0.67,1.67,1.25,2.84,1.01
				c0.5-2.5,1.43-4.6,1.01-7.03c-4.35-3-5.02-8.52-6.85-13.03c0.74-1.24,2.08-2.59,0.58-3.84c-2.92-2.26-6.6-2.76-10.02-4.18
				c-2.17-1.83-3.59-4.42-6.02-5.83c0.67-1.18,1.26-3.03,0.25-4.19c-0.76-0.91-1.59-1.33-2.59-1.43c-2.08,0.93-4.86,1.84-7.03,0.59
				c-1.41-1.43-3.51-2.42-4.26-4.43c-0.34-1.26,1-1.75,0.83-3.02c-0.66-1.83-3.25-3-3.25-5.17c2.25-1.18,4.93,2.83,6.68,0
				c0.34-1-0.84-1.42-0.41-2.43c1.5,0.09,1.67,1.93,3,2.43c2.42,0.08,4.51,0.84,6.43,2.17c1.09,5.69,6.6,1.44,9.78,4.27
				c2.08-1.34,2.76,1.42,3.84,2.16c1.01,1.1,2.51,2.02,4.01,2.42c3.19,3.43,6.11,7.04,6.03,11.87c0.15,0.5,0.66,1,1.16,1.17
				c0.59,0.17,1-0.17,1.42-0.42v-0.17h0.59c0.25,3.93,5.19,5.35,6.27,9.19c1.83,3.85,2.42,9.29,1,13.46
				c0.34,0.41,0.41,0.99,0.34,1.59c-0.84,0-2.34-0.08-2.76,1.25c-1.17,1.34-1.17,3.42-0.83,5.17l-0.43,0.42
				c-0.58-0.42-1-1.67-2-1.25c-2.02,2.42,0.41,5.52,1,8.02c1.26,1,1.93,2.67,3.84,2.26c1.5-1.18-0.42-2.92,0.41-4.01
				c0.76,0.41,1.93,0.67,2.43,1.42c-0.25,1.25-1.83,2-1.26,3.58c0.59,0.93,1.76,1.27,2.6,0.77c2.42-3.36,3.17-8.37,1.67-12.36
				c-0.42-0.68-1.34-0.51-1.85-0.26c-0.91,0.76-0.49,2.51-2,2.59c-0.66-1.59,0.42-4.01,0.59-6.01c0.59-0.42,1.34-0.68,1.84-1.34
				c1.51,0.42,0.42,2.26,1.17,3.18c2.34,3.09,2.25,7.6,1.59,11.44c0.09,3.18-6.01,6.27-1.18,9.03c1.68,0.92,2.43-3.68,3.18-0.59
				c-0.25,4.01,0.66,8.27-0.75,12.04c0.33,3.09-3.34,4.58-3.42,7.6c-1.51-0.18-3.84,0-5.18,1.41c-1.25,2.51,0.75,5.17-0.26,7.61
				c0.17,1.08,0.33,2.43,1.43,3c-0.26,1.17-1.17,2.44-0.84,3.6c3.1,1.43,3.84-3,5.43-4.59c-0.25-0.84,0.5-1.34,0.25-2.25
				c-1.01-0.26-2.51-0.75-1.67-2.19c0.58-1.25,0.92-2.83,1.67-3.82c0.58,0.42,1.42,0.16,2.17,0.23c-0.08,2.26-1.42,4.52-1.17,7.19
				c-0.16,6.35-7.27,5.85-9.44,10.87c0,1.17,0.59,1.92,1.58,2.41c-2.17,4.02-4.43,8.03-6.6,12.04c-1.5,2.1-6.6,1.92-4.84,5.77
				c-2.01,5.52-8.12,8.03-12.79,10.45c-4.26-0.17-8.52,0.58-10.69,4.18c-2.34,1.92-5.69,3.26-8.61,2c-1.75-0.33-3.93-0.33-5.18,1
				c-0.42,0.68-1.25,1.42-0.58,2.26c0.34,1.34,2.09,0.42,2.17,1.76c-4.26,3.1-10.44,1.59-15.46,2.84c-0.74-0.99-2.25-0.49-3.17-1.17
				c-1.92-1.26-4.01-3.34-6.44-2.25c-1.67,2.59-5.34,0.58-7.18,2.59c-1.51-0.08-2.43,0.42-3.69-0.34
				c-2.51-6.69-9.78-0.67-14.62-3.68c-1.17,0-2,1.26-3.18,0.67c-1.51-1-0.08-3.5-2.26-4.01c-3.84-1.33-8.36,0.33-11.2-3.01
				c-1.17-0.42-2.41-1.41-3-2.43c-0.17-1.41,1.17-2.41,0.42-3.84c-1.84-1.49-3.85,0.5-5.85-0.16c-5.52-1.09-9.78-5.27-14.45-8.45
				c0.59-1.58,2.99-2.42,1.83-4.59c-2.25-2.76-6.19-1.84-8.19-4.59c-2.42-3.43-5.26-6.53-7.27-10.04c1.43-0.41,2.84,0,4.44-0.66
				c0.66,1.25,1.74,1.75,2.58,2.66c-0.92,0.08-1.92,0.34-2.42,1.18c-0.09,4.58,5.18,4.68,7.69,7.45c0.83,0,2.67-0.34,2.75-1.6
				c0-2-2.5-2.93-3.17-4.67c0.84-0.59,1.84,0.66,2.76,0.99c0.84,1.43,2.26,3,4.01,2.02c2.42-3.35-1.75-6.35-2.17-9.8
				c-2.09-0.98-2.09-4.5-5.01-3.58c-0.67,0.49-0.43,1.66-0.17,2.32c0.75,0.27,0.84,1.18,1.01,1.85c-0.5,0.94-1.17-0.16-1.84,0.17
				c-1.34-1.75-0.5-4.93-3.18-5.61c-1.67-0.41-3.17,0.59-3.43,2.02c-0.09,0.91,0.09,2.01,0,2.58c-0.5-0.57-0.74-1.5-1-2.34
				c-6.27-4.42-9.53-11.6-9.28-19.05c-0.25-0.91-1.08-1.5-0.74-2.67c1.17-0.25,2.67-0.15,3.17-1.58c-0.74-3.5,0-7.09-3.43-9.44
				c-1.08-4.51-0.16-9.12,1.25-13.2c1.25,0.41,2.26-0.66,2.58-1.6c0.43-3.17-2.41-5.26-1.41-8.43c0.33-3.51,3.34-5.94,2.83-9.87
				c1.01-0.24,1.43,1.6,2.43,0.67c1.76-3.68,5.1-6.85,4.34-11.28c1.92-2.92,2.92-6.6,6.27-8.6c0.09-1.09-0.33-2.68,0.75-3
				c0.92,1.41,0.5,4.58,3.25,4.01c3.84-2.76,1.43-7.69,4.43-11.04c2.09-2.91,5.86-3.75,6.77-7.42c1,1.08,2.76,0.49,3.84,0
				c1.92-0.77,4.68-0.77,7.02-1.01c2.5-2.19,3.67-5.61,7.18-6.61C147.13,102.73,147.71,104.33,149.39,104.16"/>
			<path class="st3" d="M181.47,254.14l-0.41,1.68c0.34,0.59,0.92,1.26,1.83,1c0.59-0.41,1.26-0.75,1.18-1.67
				C183.48,254.23,182.47,254.07,181.47,254.14 M184.07,249.39l0.4,0.58c0.09-0.09,0.26-0.17,0.18-0.42
				C184.56,249.3,184.23,249.39,184.07,249.39 M193.67,249.14c-2.41,1.67-6.35,1.25-7.43,4.43c-0.25,2,0.91,4.02,2.26,5.44
				c3.75,0.16,7.68,1.5,12.03,0.99c0.91-0.49,2.51-1.34,1.76-2.59c-2.02-2.5-5.78,0.42-7.61-2.26l0.42-0.57
				c2.59,0.08,5.6,0.83,8.02-0.59c1.17-2.02-2.1-2.66-2.18-4.43c-1.75-0.5-3.59-0.08-4.84,1.25
				C195.09,250.3,194.92,249.14,193.67,249.14 M226.02,244.79c0,0.58-0.17,1.33,0.33,1.75c0.67,0.09,1.17-0.07,1.67-0.17
				c0.84-0.49,2.1-1.25,2.17-2.41C229.68,241.61,227.11,243.87,226.02,244.79 M199.52,241.11c-3.35,0.75-6.35,2.42-9.27,4.26
				l-1.75-1.41c-2.68,0.42-5.09,2.08-6.86,4.17l-0.99,4.02c0.25,1,1.33,0.66,2.01,1c1.25-0.07,1.75-1.09,2.42-2.01
				c3.68-0.75,6.44-4.25,10.44-3.59c0.92,0.76,2.01,0.93,3.17,0.83c3.27-0.33,1.34-4.17,3.01-5.84
				C201.53,241.53,200.36,241.28,199.52,241.11 M232.37,238.52c0.49-0.74,1.25-1.42,1.25-2.43
				C232.78,236.44,231.86,237.77,232.37,238.52 M137.76,228.91c-0.83,1-3.08,1.58-2.25,3.59c0.58,1.25,1.84,1.51,2.84,2.25
				c-0.09,0.92-0.33,1.76,0.58,2.34c0.84,0.67,1.93,1.25,3.01,0.84c0.67-0.16,1.85-0.93,1.43-2.01c0.25-2.01-2.09-1.24-3.01-2.01
				c0-0.75,0.92-1.08,0.59-2.01C139.61,231,139.61,228.91,137.76,228.91 M232.19,227.49c-3.59,0.33-5.09,4.26-7.01,6.85
				c-0.68,0.25-0.76-1.09-1.85-0.59c-1.08,2.26-4.09,3.35-4.34,6.02c0.74,1.24,1.82,0,2.76,1.01l-0.42,0.32
				c-3.51-1.09-6.27,1.09-9.2,2.01c-0.74-0.49-0.58-1.5-0.58-2.33c-2.01-2.61-3.35,1.33-5.44,0.98c-1.51,1.76-4.51,3.35-3.17,6.03
				c1.92,0.92,3-1.67,4.76-1.67c3.26,4.26-3,1.84-4.17,3.68c-0.76,1.24,0.41,2.42,1.17,3.17c4.51,0.68,9.35-0.08,13.03-2.42
				c2.17-3.25-3-1-3-3.42c2.68-0.34,6.01-0.49,8.02-3c0.58-1.17,0.76-2.84-0.59-3.34c4.6-2.02,6.7-6.7,10.45-9.87l0.17-2.59
				L232.19,227.49z M119.47,225.74c-1.51-0.09-1.35,1.6-1.59,2.59c-0.25,3.77,3.84,4.68,6.02,6.44c-0.66,1.33-2.17,0.5-3.01,1.59
				c-0.58,0.59,0.17,1.17,0.17,1.76c4.26,2,8.94,6.27,14.03,4.01c1.09,2.42,3.84,2.5,5.86,3.43c-0.42,0.99-2.51,1.24-2.02,2.82
				c1.09,1.69,2.93,2.1,4.86,2.18c2.34-0.17,1.83-3.84,4.76-2.75c1.09-0.41,1.25-1.51,1.42-2.43c-1.59-1.49-3.84-2-6.18-2
				c-1.69-1.17-0.76-4.18-3.43-4.01c-1.84-0.25-4.27-0.59-5.43,1c-2.43-1.5-5.6-1.18-8.03-2.59c-2.34-1.68,0.84-2.18,1.43-3.26
				c1.75,0.18,2.92,2.01,4.43,3.01c1,0.5,2.26,0.17,2.76-0.75c0.84-1.59-0.42-2.84-1.17-4.02c-2.25-1.83-4.34-3.91-7.27-4.24
				C123.48,233.76,123.57,224.57,119.47,225.74 M248.4,213.71c-3.59,0.74-5.27,4.34-6.18,7.6c-2.68-0.5,0.09-2.84-0.84-4.6
				c0-0.75-0.84-0.66-1.34-0.66c-2.67,2.42-3.34,6.01-5.27,8.85c-1.08,1.43-0.83,3.17-0.58,4.6c1.51,1,1.92-0.84,2.85-1.59
				c2.84,1,4.34-3.18,7.36-2.01c-0.26,1.77-1.85,3.18-2.36,4.6c-0.58-0.26-0.49-0.92-1-1.17c-3.41,0.09-5.08,3.68-6.85,5.77
				c-1.33-1.08,0.84-2.1,0.18-3.19c-3.76,1.94-7.02,6.2-8.62,10.03c0.34,0.18,0.34,0.59,0.59,0.84c2.67,0.51,4.43-2.25,5.68-3.84
				c1.42,2.09-1.08,3.84-0.42,5.86c2.01-0.17,4.01-1.92,5.76-3.26c0.92-1.51-0.91-1.51-1.58-2.42c3.09-1.33,4.26-4.68,6.02-7.19
				c2.5,1.84,3.09-2.09,5.01-3c0.5-2.76,3.75-4.68,2.84-7.85c-1.34-0.76-2.59,1.42-3.84,0.41c0.92-2.42,4.01-3.35,4.27-6.01
				C249.99,214.45,249.49,213.71,248.4,213.71 M244.65,204.27c-0.59,2.92-0.34,6.01-1.84,8.76c0.33,0.69,0.66,1.93,1.84,1.43
				c2.41-1.67,4.34-4.26,3.75-7.6C248.07,205.09,246.15,204.51,244.65,204.27 M103.85,199.24c-0.68,1.93,1.41,3.77,2.17,5.44
				c0.84-0.75,0.16-2.42,0.25-3.67C106.02,199.83,104.76,199.66,103.85,199.24 M114.29,195.24c-0.84,0.16-1.84,0.25-2.42,1.17
				c-0.51,3.51,0.67,8.27,1.84,11.29c0.75,0.41,1.58,0,2.17-0.42l0.18-10.03C115.63,196.49,115.47,195.15,114.29,195.24
				 M250.41,194.24c-0.51-0.74-1-0.08-1.58,0c-1,2.76-3.26,5-2.42,8.59c0.66,1.85,2.42,0.68,3.68,1.01l-0.26,5.43
				c-0.17,1.17,0.42,2.26,1.84,1.76c1.51-2.35,2.09-5.35,1.75-8.21c-0.33-1.16-1.75-1.33-2.59-1.16c0-1.24,1.17-2.01,1.01-3.25
				C251.41,196.99,251.16,195.32,250.41,194.24 M101,186.39c-1.41,0.84-1.33,2.33-1.58,3.58c-0.68,2.01,2.41,5.02-1.17,5.43
				c-1.58,3.77,1.67,6.45,3.43,9.28c0.42,4.6,4.77,1.09,7.02,3.02c1.58-0.59,2.26-2.26,2.17-3.85c-2.17-2.67,0.09-5.84-1.17-8.6
				c-0.92-1.51-2.42-2.5-4.26-2.02c-1.77-0.66-1-2.76-1.18-4.25C103.51,187.89,103.01,185.8,101,186.39 M107.02,183.37
				c-1.33-0.83-2.34,0.51-2.59,1.6c0.33,2.67,0.83,5.5,3,7.27c1.34,0.84,3.09,0.98,4.26-0.26c0.84-1.51-1.42-2.84-2.26-4.18
				L107.02,183.37z M104.02,178.95c-0.84,0.75-0.84,1.75-0.75,2.83c0.33,0.75,1.17,0.59,1.76,0.59c0.99-0.59,1.16-1.51,0.99-2.58
				C105.85,178.87,104.76,178.95,104.02,178.95 M255.68,173.35c-1.92,0.09-2.01,1.83-2.42,3.26c-0.41,1.75,0.92,3.34,0,4.76
				c-2.09-1.01,0.09-4.17-2.59-5.01c-0.34,0.42-0.92,0.75-1,1.26c-1.08,5.35-1.76,11.52,1.42,16.37c1.01,0.75,2.17,1.42,3.18,0.25
				c0.59-1.34-0.09-2.68-1-3.6c0.09-1.25-1.08-2.84,0.17-3.66c1,1.24,2.17-0.5,2.67-0.59l0.58,2.41c0.76,0.59,1.51-0.16,2.18-0.59
				c0.84,1-0.67,2.34,0,3.59c5.1-1.34,2-7.35,3.42-11.19c-2.66-2.33-2.34,2.75-4.59,2.59c-0.67-0.25-0.34-0.92-0.42-1.43
				c1.17-1.43,1.66-3.17,1.42-5.17C257.84,175.43,257.43,173.43,255.68,173.35 M100.42,170.93c-0.59,0.33-0.59,1.33,0,1.67
				c0.25,0,0.5,0,0.58-0.25C101.43,171.93,101.25,170.84,100.42,170.93 M112.87,157.3c-2.43,1.35-1.93,5.02-2.02,7.44l1.43,0.16
				c2.43-1.84,4.51-5.09,3.59-8.18C115.04,154.55,113.7,156.56,112.87,157.3 M246.07,151.53c-2,3.18-4.02,7.86-1.41,11.37
				c-0.34,0.5-0.85,0.75-1.43,0.66c-0.09,1,0.08,1.84,0.15,2.76c2.27,2.77,4.52,6.78,8.46,5.44c1.58-2.35-2.51-3.35-2.77-5.44
				c0.59-3.17-2.17-5.17-1.42-8.18c-0.07-2.25,2.43-1,3.59-1.58v-4.03C250.66,150.37,247.58,150.37,246.07,151.53 M113.04,128.81
				c-1.59,1.83-3.6,3.85-4.18,6.27c-0.5,1.83-0.08,3.84,1.17,5.17c1.92,0.42,2.17-2.59,3.85-2.17c1.33,3.84-2.85,2.34-4.18,4.42
				c-0.59-0.5-1.25-0.75-2-0.66c-1.92,2.75-5.51,5.51-4.02,8.86c-0.82,1.42-1.42-0.42-2.42,0c-2.34,2.84-3.17,7.77-1.58,11.44
				c3.76-0.25,1.33-4.51,3.6-6.43c3.84,0.84,0.49,3.92,0.99,6.18c-0.59,1.09-2.17,0.5-2.83,1.66c-1.01,1.6-0.43,4.11-1.01,5.61
				c-0.92-0.17-0.5-1.25-1.17-1.6c-0.58,0-1.26-0.16-1.58,0.18c-2.35,4.6-0.18,10.19,1.32,14.62c0.93,0.75,2.26,0.34,3.01-0.41
				c0.67-1.01,0.5-2.61,0-3.6c0.59-0.91,1.51-1.83,2.67-1.75c4.27-0.84,1.09,3.75,3.18,5.02c0.59-0.08,1.43,0.16,1.58-0.41
				c1.26-3.94,0.25-6.86,0.25-11.05c-0.75-1.49,0.08-5.26-2.67-4.25c-0.84,1.25-1,3.18-0.58,4.67c0,1.09,1.83,2.69,0,3.35
				c-1.18-0.58-1.67-1.83-2.01-3c2.92-2.35-1.42-5.02,0.59-7.61c5.25-0.25,4.26-6.27,6.01-9.19c-0.75-1.92-0.91-4.84-3.76-4.84
				c0.17-2.18,2.1-3.77,2.76-5.6c0.25,0.25,0.67,0.42,0.67,0.83l2.17,0.17c5.84-1.59,9.19-7.43,10.44-12.88
				c-0.25-0.5-0.75-1.01-1.25-1.17c-0.84,0.43-2.17,1.25-2.01,2.42c-0.42,1.09-1.25,2.58-2.6,2.76c-1.67-2.76,4.6-3.77,2.43-7.02
				c-2.93-0.92-4.25,2.26-5.43,3.85c-0.5-0.68,0.17-1.86,0.25-2.84C114.78,128.89,113.88,128.72,113.04,128.81 M241.39,128.64
				c-1.58,2.09-0.34,5.35,0.42,7.6c-2.43-1.33-1.93,2.18-2.01,3.26c0.84,3,1.84,7.34,5.6,7.76c0.75-2.67,3.76,0.09,4.01-2.75
				c1.42,0.83-0.17,2.25,0.67,3.34c0.33,1.18,1.5,2,2.76,1.67c2.51-4.18-0.26-8.77-0.76-12.69c-0.67-0.83-1.18-2.26-2.43-2.35
				c-1.5,0.83,0.17,2.26,0.17,3.35c-0.41,0.4-0.67,0.9-1.17,1c-2.09-0.68-0.91-3.42-1.83-5.02
				C245.56,131.73,243.97,128.98,241.39,128.64 M128.91,124.63c-0.16,1.75-2.01,2.26-2.17,4.01c0.59,0.67,1.84,0.41,2.6,0.17
				c2.17-0.92,3.68-2.68,4.01-5.03C132.09,122.21,130,123.37,128.91,124.63 M135.93,116.19c-1.92,0.83-2.67,2.83-2.59,4.85
				c0.5,0.75,1.84,0.99,2.76,0.58c1.75-0.92,2.43-2.68,2.67-4.44C138.6,115.77,136.85,115.94,135.93,116.19 M232.37,115.02
				c-1.67-1.58-4.1-3.26-6.19-2.26c-0.08,1.17,0.08,2.17,0.59,3.01c1.18,1.09,3.68,2.01,3.25,3.84c-1.75-0.91-2.91-2.09-4.68-3.01
				c-0.92-0.07-3.59-1-3,1.18c0.17,3.27,3.68,3.84,5.85,5.44c0.08,1.49-1.59,0.42-2.17,1c-0.26,1.33,0.66,2,1.33,2.84
				c2.66,0.5,4.93,3.68,7.69,2.17c0.33-2.68-2.1-3.42-3.01-5.44c1.51-1.24,2.84,1.76,4.34,2.27c0.25,0.91-0.4,2-0.17,3.17
				c0.84,0.92,0.6,3.26,2.6,2.59c1.08,0,1.08-1.08,1.01-1.99c-2.01-1.77,2.34-4.18-1.18-5.6c0.76-2.18,1.51,1.5,3.19,0.83
				c0.83-0.16,1-1.27,0.59-1.83c-2.43-1.85-3.27-5.44-6.36-6.45c-1.33,0.25,0.09,2.35-1.26,2.43
				C234.2,117.69,232.78,116.6,232.37,115.02 M131.76,110.75c-2.6,0.76-2.42,3.69-4.01,5.27c-1.25,0.84-1.92-0.74-3.26-0.25
				c-2.67,2.17-3.6,5.6-3.43,8.86c2.18,0.84,1.67-2.34,3.43-2.6c1.33,2.67-4.18,4.26-2.17,7.02c0.75,0,1.91,0,2.58-0.83
				c0.84-3.68,7.86-4.93,5.61-9.79c0.25-0.74,0.99-0.99,1.59-1.25c1.75-1.66,3.67-3.25,3.84-5.58
				C135.18,110.17,133.09,111.01,131.76,110.75 M215.31,107.17c-0.83,3-4.1,0-5.35,1.84c-0.33,1.59,1.08,2.92,2.17,4.17
				c-0.33,0.34-0.58,0.69-1,0.84c-0.67,1,0.33,1.75,1,2.42c2.35,1.84,5.19,0,7.44-0.84c0.5-1.26-0.75-2.33-1.59-3.01
				c0.25-0.34,0.59-0.42,1.01-0.42c0.67-0.49,1.82-1.17,1.74-2.16C220.08,107.75,217.41,107.5,215.31,107.17 M144.79,104.74
				c-1.42,0.75-3.43,2.59-3.26,4.27c-2.34,1.25-0.42,3.5-0.76,5.44c1.17,2.5,3.76,0.24,5.6,0.32c0.84-0.75,2.76-0.67,2.6-2.33
				c-1.93-2.76,2.41-1.93,2.59-4.02c0.58-0.75,0.75-2.26-0.17-2.83c-2.84-0.67-5.09,0.84-6.85,3.01c-2.68-0.42,1.17-1.78,0.84-3.01
				L144.79,104.74z M149.39,104.16l5.44-0.77c1.58,3.42-4.52,5.61-1.85,9.04c-0.66,1.83-3,2.58-4.59,3.58
				c-3.01,2.69-8.18-2.25-9.45,3.43c-0.99,4.19-4.59,7.78-8.18,10.2c-2.42,1.16-5.85,1.33-6.01,4.84c-1.92,3.42-3.77,7.19-6.85,9.78
				l-0.59,1.42c-2-2.34-4.09,0.74-6.01,1.42c-1.42,2.67-0.09,5.1,1.17,7.2c3.6-0.67,3.43-5.02,4.43-7.45
				c1.67,1.52-0.59,3.35-0.17,5.27c-0.99,2.93,2.33,5.77-0.25,8.46c-0.09,1.83-0.75,4.09-2.76,5.17c-1.26,0.67-3.43,0.92-3.43,2.83
				c1.92,4.52,2.6,10.62-0.58,14.79c-1.67,3.35,2.93,4.11,3.01,7.02c6.84,4.1,5.35,13.88,4.34,20.48c1.76,1.59,4.77,1.5,5.43,4.18
				c0.41,1.74,0.5,4.25,2.84,4.43c1.92,0.5,4.68-0.34,5.43,2.25l0.59,1.34c-2.67-0.34-4.6-3.59-7.43-2.34
				c-0.59,1-1.58,2.25-0.42,3.35c2.26,3.26,6.26,4,9.61,5.42c0.66,0.25,1.5-0.34,1.84-0.99c-0.42-1.51-1.59-2.68-2.43-4.03
				c2.26-0.24,3.59,0.92,4.86,2.6c2.5,2.67,7.02,4.02,7.59,8.02l1.85,1.67c-1.17,0-2.17,0.59-2.67,1.58
				c-0.17,3.77,4.43,3.68,6.43,5.77c1.59,0.49,2.42-2.51,3.84-0.59c-1.25,0.34-2.34,1.42-1.59,2.84c0.34,0.59,0.76,1.17,1.18,1.75
				c-1.59,1.93-4.93-1.33-6.61,1.43c-0.49,0.58-0.84,1.49-0.41,2.26c2.01,1.99,5.93,1.08,8.19,0.74c-0.59,0.59-1.51,1.18-1.58,2.26
				c1.33,2.26,3.59,0.59,5.6,1.33c2.24-0.41,5.35,2.08,6.68-1.33c-0.92-3.5-6.6-1.26-6.44-5.42c0.76-1.27,2.76,0,3.18-1.85
				l-0.16-0.75c2,0.09,1.67,2.85,3.76,3.01c1,0.08,1.5-1,1.67-1.83c-1.43-3.18-4.6-6.11-7.29-8.19c-0.49-0.09-1.17,0-1.17,0.58
				c0.09,2.09,1.25,3.76,2,5.6c-1.82-0.59-3.84-1.25-5.25-2.43c0.5-0.76,1.67-0.08,1.84-1.18c0.25-1.33-1.08-1.93-1.84-2.84
				c-0.75-0.24-2.01-0.82-2.59,0.26l-0.76,1.33c-0.75-0.83-0.91-2.59-2.41-3c-1.01-0.34-2.26,0-3.02-1.01
				c1.25-0.51,2.76-3.01,4.43-1.17c1.17,0.93,2.26,2.25,4.01,2.01c0.76-0.93,1.83-1.59,3.01-1c4.01,2.51,8.02,6.43,9.78,10.6
				c2.34,1.68,5.6-0.49,8.02,0.26c-0.15,1.16-2.34,1.16-2.41,2.75c0,1.09,0.92,2.25,0,3.26c-1.5-1.25,0-5.68-3.34-4.68
				c-1.51,1.76-3.18,3.84-3,6.42c1,1.53,2.08,3.1,3.75,3.86c2.34,0.67,4.17-1.18,6.6-0.84c0.59-0.43,1.42-0.67,1.66-1.43
				c2.1-3.76-5.26-7.27,0.18-9.35c2.59-6.43,10.94-3.84,13.61-10.44c1.76,0.91-1.83,2.92,0.84,3.75c2-0.58,3.92-2.18,6.19-1.75
				c1.25,1.17,2.92,1.92,4.6,1.43c2.17-2.44,5.35-2.02,7.85-3.43c0.34,0.58,0.99,1.25,1.58,1.57c3.6,0.93,3.26-3.42,5.59-4.58
				c2.27-4.27,7.11-4.34,9.7-8.28c1.43-1.09,3.85-1.09,4.36-3.35c1.16-3.16,2.5-6.91,5.84-8.44c1.93-1.26,2.1-3.25,2.18-5.26
				c-0.17-3.33-0.34-6.61-0.59-10.01c1.08-1.09,3.17,1.24,3.84-1.01c-1.85-4.02,4.5-5.94,1.58-9.2c-1.33-4.58-0.17-9.35,1.17-13.87
				c0.09-2.93-3.51-3.09-5.02-5.35c-2.83-2.59-1.82-6.02-3.17-9.27c-0.25-1.42-1.24-2.93-0.41-4.18c0.84,0.67,1.67,1.25,2.84,1.01
				c0.5-2.5,1.43-4.6,1.01-7.03c-4.35-3-5.02-8.52-6.85-13.03c0.74-1.24,2.08-2.59,0.58-3.84c-2.92-2.26-6.6-2.76-10.02-4.18
				c-2.17-1.83-3.59-4.42-6.02-5.83c0.67-1.18,1.26-3.03,0.25-4.19c-0.76-0.91-1.59-1.33-2.59-1.43c-2.08,0.93-4.86,1.84-7.03,0.59
				c-1.41-1.43-3.51-2.42-4.26-4.43c-0.34-1.26,1-1.75,0.83-3.02c-0.66-1.83-3.25-3-3.25-5.17c2.25-1.18,4.93,2.83,6.68,0
				c0.34-1-0.84-1.42-0.41-2.43c1.5,0.09,1.67,1.93,3,2.43c2.42,0.08,4.51,0.84,6.43,2.17c1.09,5.69,6.6,1.44,9.78,4.27
				c2.08-1.34,2.76,1.42,3.84,2.16c1.01,1.1,2.51,2.02,4.01,2.42c3.19,3.43,6.11,7.04,6.03,11.87c0.15,0.5,0.66,1,1.16,1.17
				c0.59,0.17,1-0.17,1.42-0.42v-0.17h0.59c0.25,3.93,5.19,5.35,6.27,9.19c1.83,3.85,2.42,9.29,1,13.46
				c0.34,0.41,0.41,0.99,0.34,1.59c-0.84,0-2.34-0.08-2.76,1.25c-1.17,1.34-1.17,3.42-0.83,5.17l-0.43,0.42
				c-0.58-0.42-1-1.67-2-1.25c-2.02,2.42,0.41,5.52,1,8.02c1.26,1,1.93,2.67,3.84,2.26c1.5-1.18-0.42-2.92,0.41-4.01
				c0.76,0.41,1.93,0.67,2.43,1.42c-0.25,1.25-1.83,2-1.26,3.58c0.59,0.93,1.76,1.27,2.6,0.77c2.42-3.36,3.17-8.37,1.67-12.36
				c-0.42-0.68-1.34-0.51-1.85-0.26c-0.91,0.76-0.49,2.51-2,2.59c-0.66-1.59,0.42-4.01,0.59-6.01c0.59-0.42,1.34-0.68,1.84-1.34
				c1.51,0.42,0.42,2.26,1.17,3.18c2.34,3.09,2.25,7.6,1.59,11.44c0.09,3.18-6.01,6.27-1.18,9.03c1.68,0.92,2.43-3.68,3.18-0.59
				c-0.25,4.01,0.66,8.27-0.75,12.04c0.33,3.09-3.34,4.58-3.42,7.6c-1.51-0.18-3.84,0-5.18,1.41c-1.25,2.51,0.75,5.17-0.26,7.61
				c0.17,1.08,0.33,2.43,1.43,3c-0.26,1.17-1.17,2.44-0.84,3.6c3.1,1.43,3.84-3,5.43-4.59c-0.25-0.84,0.5-1.34,0.25-2.25
				c-1.01-0.26-2.51-0.75-1.67-2.19c0.58-1.25,0.92-2.83,1.67-3.82c0.58,0.42,1.42,0.16,2.17,0.23c-0.08,2.26-1.42,4.52-1.17,7.19
				c-0.16,6.35-7.27,5.85-9.44,10.87c0,1.17,0.59,1.92,1.58,2.41c-2.17,4.02-4.43,8.03-6.6,12.04c-1.5,2.1-6.6,1.92-4.84,5.77
				c-2.01,5.52-8.12,8.03-12.79,10.45c-4.26-0.17-8.52,0.58-10.69,4.18c-2.34,1.92-5.69,3.26-8.61,2c-1.75-0.33-3.93-0.33-5.18,1
				c-0.42,0.68-1.25,1.42-0.58,2.26c0.34,1.34,2.09,0.42,2.17,1.76c-4.26,3.1-10.44,1.59-15.46,2.84c-0.74-0.99-2.25-0.49-3.17-1.17
				c-1.92-1.26-4.01-3.34-6.44-2.25c-1.67,2.59-5.34,0.58-7.18,2.59c-1.51-0.08-2.43,0.42-3.69-0.34
				c-2.51-6.69-9.78-0.67-14.62-3.68c-1.17,0-2,1.26-3.18,0.67c-1.51-1-0.08-3.5-2.26-4.01c-3.84-1.33-8.36,0.33-11.2-3.01
				c-1.17-0.42-2.41-1.41-3-2.43c-0.17-1.41,1.17-2.41,0.42-3.84c-1.84-1.49-3.85,0.5-5.85-0.16c-5.52-1.09-9.78-5.27-14.45-8.45
				c0.59-1.58,2.99-2.42,1.83-4.59c-2.25-2.76-6.19-1.84-8.19-4.59c-2.42-3.43-5.26-6.53-7.27-10.04c1.43-0.41,2.84,0,4.44-0.66
				c0.66,1.25,1.74,1.75,2.58,2.66c-0.92,0.08-1.92,0.34-2.42,1.18c-0.09,4.58,5.18,4.68,7.69,7.45c0.83,0,2.67-0.34,2.75-1.6
				c0-2-2.5-2.93-3.17-4.67c0.84-0.59,1.84,0.66,2.76,0.99c0.84,1.43,2.26,3,4.01,2.02c2.42-3.35-1.75-6.35-2.17-9.8
				c-2.09-0.98-2.09-4.5-5.01-3.58c-0.67,0.49-0.43,1.66-0.17,2.32c0.75,0.27,0.84,1.18,1.01,1.85c-0.5,0.94-1.17-0.16-1.84,0.17
				c-1.34-1.75-0.5-4.93-3.18-5.61c-1.67-0.41-3.17,0.59-3.43,2.02c-0.09,0.91,0.09,2.01,0,2.58c-0.5-0.57-0.74-1.5-1-2.34
				c-6.27-4.42-9.53-11.6-9.28-19.05c-0.25-0.91-1.08-1.5-0.74-2.67c1.17-0.25,2.67-0.15,3.17-1.58c-0.74-3.5,0-7.09-3.43-9.44
				c-1.08-4.51-0.16-9.12,1.25-13.2c1.25,0.41,2.26-0.66,2.58-1.6c0.43-3.17-2.41-5.26-1.41-8.43c0.33-3.51,3.34-5.94,2.83-9.87
				c1.01-0.24,1.43,1.6,2.43,0.67c1.76-3.68,5.1-6.85,4.34-11.28c1.92-2.92,2.92-6.6,6.27-8.6c0.09-1.09-0.33-2.68,0.75-3
				c0.92,1.41,0.5,4.58,3.25,4.01c3.84-2.76,1.43-7.69,4.43-11.04c2.09-2.91,5.86-3.75,6.77-7.42c1,1.08,2.76,0.49,3.84,0
				c1.92-0.77,4.68-0.77,7.02-1.01c2.5-2.19,3.67-5.61,7.18-6.61C147.13,102.73,147.71,104.33,149.39,104.16"/>
			<path class="st4" d="M180.01,178.05c-0.91-18.26-2.79-36.9-2.79-36.9c-4.45-1.53-11-3.49-20.33-0.98
				c-9.33,2.5-15.46,3.07-18.26,2.78c-2.77-0.28-5.14,0-4.73,3.62c0.42,3.63,3.62,61.29,3.9,64.62c0.27,3.34,0.55,4.58,4.32,3.07
				c3.75-1.53,17.54-4.87,28.96,0c4.87,2.08,6.55,3.06,7.8,3.62c1.26,0.57,2.5,1.12,1.95-5.71
				C180.59,209.03,180.79,193.68,180.01,178.05 M183.63,212.31c0.13,5.85,1.38,5.7,3.61,4.18c2.24-1.53,9.19-3.49,16.58-4.74
				c7.39-1.25,14.21,0.98,16.43,1.82c2.24,0.83,4.04-0.15,3.62-2.37c-0.42-2.22-1.66-23.13-2.08-34.39
				c-0.42-11.29-1.53-35.65-1.53-35.65l-1.39-0.98l-1.39,0.41c-4.73,2.37-12.95-0.27-21.86-2.08c-8.92-1.81-12.41,1.81-14.77,4.18
				C180.84,142.68,183.5,206.46,183.63,212.31 M221.37,136.69c1.95,1.53,2.79,3.48,4.31,4.46c-0.4,4.87-0.4,3.07-0.14,8.22
				c0.28,5.15,2.23,56.4,2.51,60.02c0.27,3.61,0.27,6.83,0.83,7.93c0.56,1.13,0.42,3.21-1.81,1.67c-2.22-1.53-5.43-4.04-15.32-4.04
				c-9.9,0-18.71,2.12-22.99,4.04c-6.54,2.92-4.87,5.71-11,1.95c-6.14-3.77-17.13-7.65-26.04-5.99c-8.92,1.68-11.15,2.51-13.11,3.62
				c-1.94,1.13-3.34,2.23-3.6-2.35c-0.29-4.61-4.04-61.02-4.33-66.3c-0.27-5.29-0.14-6.26-0.14-6.26l5.58-4.46
				c5.72,1.11,9.75,1.38,17.42-1.4c7.66-2.78,18.24-3.48,22.27-0.55c4.04,2.92,4.18,3.2,6.83,0.55c2.64-2.64,8.77-4.32,15.46-2.22
				C204.79,137.67,213.85,141.01,221.37,136.69"/>
			<polygon class="st4" points="189.42,171.59 193.64,163.7 188.26,156.77 190.73,156.55 194.81,161.79 198.01,155.84 
				200.01,155.65 195.96,163.26 201.54,170.45 199.06,170.67 194.77,165.18 191.42,171.4 			"/>
			<path class="st4" d="M214.55,168.45c-0.58,0.37-1.1,0.65-1.56,0.84c-0.46,0.18-0.95,0.35-1.45,0.47
				c-0.51,0.11-1.07,0.21-1.66,0.25c-2.51,0.23-4.4-0.33-5.7-1.67c-1.3-1.37-2.06-3.16-2.27-5.39c-0.21-2.27,0.21-4.19,1.28-5.76
				c1.07-1.56,2.84-2.46,5.33-2.7c1.32-0.13,2.89-0.06,4.71,0.2l0.19,1.98c-1.55-0.37-2.61-0.58-3.18-0.63
				c-0.57-0.04-1.11-0.04-1.62,0.01c-1.78,0.16-3,0.89-3.69,2.18c-0.68,1.27-0.93,2.78-0.77,4.53c0.18,1.8,0.77,3.25,1.8,4.27
				c1.02,1.03,2.37,1.48,4.06,1.32c0.46-0.05,0.93-0.14,1.39-0.26c0.45-0.12,0.91-0.29,1.35-0.5c0.44-0.2,0.99-0.52,1.63-0.95
				L214.55,168.45z"/>
			<polygon class="st4" points="196.97,200.22 195.7,186.91 193.36,187.13 193.24,185.89 197.52,185.11 198.94,200.03 			"/>
			<path class="st4" d="M204.23,199.51c0.1-1.36,0.31-2.49,0.65-3.41c0.33-0.91,0.82-2,1.45-3.29l3.44-6.88l-7.62,0.73l-0.18-1.85
				l9.51-0.91l0.18,1.84c-1.11,1.99-2.01,3.79-2.7,5.37c-0.68,1.58-1.25,3.05-1.71,4.43c-0.44,1.38-0.7,2.64-0.75,3.76
				L204.23,199.51z"/>
			<path class="st4" d="M216.32,169.74c0.51,0.42,0.93,1.09,1.67,0.84c0.59-0.32,0.92-0.66,0.75-1.41
				C218.16,167.98,216.4,168.58,216.32,169.74"/>
			<path class="st4" d="M211.97,196.25c-0.75,0.25-1.25,0.99-1.25,1.74c0,1,0.75,1.59,1.59,1.67c0.93-0.43,1.5-1.43,1.26-2.42
				C213.23,196.74,212.72,195.91,211.97,196.25"/>
			<path class="st4" d="M148.78,178.44l1.12-0.09c1.85-0.11,3.15-0.65,3.9-1.58c0.73-0.94,1.06-2.06,0.98-3.34
				c-0.05-0.69-0.22-1.29-0.5-1.76c-0.3-0.45-0.73-0.81-1.32-1.08c-0.59-0.27-1.59-0.35-3.01-0.25l-1.71,0.12L148.78,178.44z
				 M146.57,188.96l-1.38-20.49l5.47-0.37c1.95-0.12,3.35-0.04,4.23,0.3c0.87,0.32,1.56,0.87,2.07,1.66
				c0.5,0.78,0.79,1.76,0.88,2.96c0.1,1.4-0.12,2.65-0.64,3.74c-0.52,1.09-1.43,1.98-2.71,2.64c-1.28,0.66-2.71,1.03-4.3,1.15
				l-1.26,0.07l0.56,8.13L146.57,188.96z"/>
			<path class="st4" d="M160.32,187.54l-0.17-2.49c1.85,0.7,3.43,1.02,4.75,0.94c0.78-0.05,1.42-0.31,1.91-0.76
				c0.49-0.47,0.72-1.02,0.68-1.65c-0.03-0.39-0.19-0.78-0.47-1.13c-0.29-0.36-0.91-0.7-1.87-1.03l-1.65-0.56
				c-1.28-0.43-2.22-0.95-2.82-1.58c-0.62-0.62-0.95-1.41-1.02-2.38c-0.08-1.19,0.3-2.23,1.13-3.09c0.83-0.85,2.1-1.34,3.84-1.46
				c0.84-0.05,1.89-0.01,3.15,0.15l0.59,0.06l0.15,2.29c-1.58-0.38-2.85-0.54-3.78-0.47c-0.89,0.05-1.55,0.3-1.97,0.71
				c-0.43,0.41-0.62,0.87-0.58,1.38c0.02,0.39,0.2,0.76,0.53,1.06c0.31,0.3,0.85,0.6,1.64,0.87l1.37,0.46
				c1.85,0.61,3.04,1.29,3.57,1.98c0.54,0.69,0.83,1.45,0.9,2.31c0.05,0.83-0.12,1.59-0.53,2.31c-0.4,0.74-1.02,1.33-1.87,1.8
				c-0.85,0.44-1.81,0.7-2.87,0.78C163.66,188.1,162.14,187.94,160.32,187.54"/>
			<polygon class="st4" points="174.01,187.09 173.77,183.65 177.22,183.41 177.45,186.84 			"/>
			<path class="st3" d="M180.01,284.05c-57.21,0-103.76-46.55-103.76-103.76c0-57.22,46.54-103.77,103.76-103.77
				s103.76,46.55,103.76,103.77C283.77,237.51,237.22,284.05,180.01,284.05 M180.01,81.13c-54.67,0-99.15,44.48-99.15,99.16
				s44.48,99.15,99.15,99.15s99.15-44.47,99.15-99.15S234.68,81.13,180.01,81.13"/>
			<path class="st4" d="M180.01,275.3c-52.39,0-95.01-42.63-95.01-95.01c0-52.4,42.63-95.03,95.01-95.03s95.01,42.63,95.01,95.03
				C275.02,232.68,232.4,275.3,180.01,275.3 M180.01,89.87c-49.85,0-90.41,40.57-90.41,90.42c0,49.85,40.56,90.4,90.41,90.4
				c49.85,0,90.4-40.56,90.4-90.4C270.41,130.43,229.86,89.87,180.01,89.87"/>
			<path class="st5" d="M186.75,29.18c-7.05,2.06-11.8,5.73-14.41,7.81c-2.53,2.02-2.17,3.88,6.42,3.73
				c6.1-0.1,9.14-1.26,15.87-5.33c3.39-2.05,6.22-6.2,0.64-6.5C189.17,28.54,186.75,29.18,186.75,29.18 M165.11,29.71
				c-6.69,3.04-10.87,7.37-13.15,9.79c-2.22,2.35-1.59,4.15,6.89,2.77c6.03-0.98,8.87-2.56,14.95-7.54
				c3.06-2.51,5.27-7.02-0.29-6.52C167.41,28.74,165.11,29.71,165.11,29.71 M143.77,33.33c-6.2,3.95-9.7,8.82-11.62,11.56
				c-1.85,2.65-0.98,4.34,7.21,1.75c5.83-1.83,8.42-3.78,13.72-9.59c2.66-2.93,4.22-7.7-1.22-6.41
				C145.91,32.03,143.77,33.33,143.77,33.33 M123.16,39.94c-5.56,4.79-8.34,10.13-9.85,13.1c-1.46,2.87-0.34,4.43,7.4,0.72
				c5.51-2.65,7.79-4.97,12.21-11.47c2.22-3.28,3.06-8.22-2.14-6.17C125.09,38.34,123.16,39.94,123.16,39.94 M103.71,49.43
				c-4.82,5.56-6.81,11.22-7.88,14.38c-1.04,3.07,0.26,4.45,7.4-0.35c5.07-3.4,7.01-6.02,10.45-13.09c1.73-3.54,1.87-8.56-2.98-5.81
				C105.4,47.59,103.71,49.43,103.71,49.43 M85.81,61.6c-3.98,6.18-5.14,12.08-5.75,15.35c-0.58,3.19,0.92,4.36,7.29-1.4
				c4.54-4.09,6.08-6.96,8.48-14.45c1.2-3.76,0.63-8.75-3.79-5.32C87.21,59.53,85.81,61.6,85.81,61.6 M69.82,76.22
				c-3.05,6.68-3.35,12.67-3.49,16c-0.13,3.23,1.53,4.19,7.02-2.43c3.9-4.69,5.02-7.75,6.32-15.5c0.66-3.89-0.62-8.75-4.5-4.73
				C70.93,73.95,69.82,76.22,69.82,76.22 M56.1,92.93c-2.07,7.06-1.52,13.05-1.18,16.35c0.33,3.22,2.11,3.93,6.6-3.4
				c3.2-5.21,3.86-8.39,4.06-16.24c0.09-3.96-1.88-8.58-5.15-4.04C56.87,90.56,56.1,92.93,56.1,92.93 M44.89,111.48
				c-1.03,7.28,0.37,13.12,1.18,16.34c0.79,3.13,2.65,3.58,6.04-4.31c2.42-5.61,2.62-8.85,1.7-16.66c-0.47-3.92-3.08-8.22-5.67-3.26
				C45.31,109.01,44.89,111.48,44.89,111.48 M36.46,131.41c0,7.33,2.23,12.92,3.49,16c1.23,3,3.13,3.18,5.37-5.12
				c1.6-5.9,1.33-9.14-0.71-16.74c-1.02-3.82-4.21-7.69-6.06-2.41C36.52,128.89,36.46,131.41,36.46,131.41 M30.94,152.33
				c1.06,7.28,4.06,12.48,5.76,15.36c1.64,2.77,3.54,2.69,4.57-5.85c0.74-6.07,0.02-9.24-3.08-16.47c-1.57-3.64-5.29-7-6.35-1.53
				C30.65,149.84,30.94,152.33,30.94,152.33 M28.47,173.83c2.08,7.04,5.8,11.78,7.88,14.38c2.02,2.53,3.89,2.16,3.69-6.44
				c-0.14-6.1-1.3-9.15-5.41-15.85c-2.07-3.37-6.22-6.2-6.5-0.62C27.83,171.41,28.47,173.83,28.47,173.83 M29.11,195.47
				c3.07,6.68,7.41,10.83,9.85,13.08c2.36,2.22,4.15,1.6,2.73-6.89c-1.01-6.03-2.61-8.86-7.62-14.92c-2.52-3.05-7.03-5.24-6.51,0.34
				C28.12,193.17,29.11,195.47,29.11,195.47 M32.81,216.79c3.99,6.17,8.89,9.66,11.62,11.57c2.66,1.84,4.34,0.96,1.72-7.22
				c-1.85-5.83-3.84-8.41-9.66-13.69c-2.93-2.64-7.71-4.17-6.4,1.27C31.51,214.65,32.81,216.79,32.81,216.79 M39.53,237.38
				c4.84,5.53,10.17,8.29,13.15,9.77c2.89,1.45,4.44,0.34,0.67-7.38c-2.66-5.5-4.99-7.78-11.51-12.16
				c-3.28-2.22-8.23-3.03-6.16,2.15C37.94,235.45,39.53,237.38,39.53,237.38 M49.12,256.79c5.57,4.79,11.25,6.73,14.41,7.8
				c3.07,1.02,4.44-0.3-0.38-7.41c-3.43-5.07-6.05-6.99-13.13-10.39c-3.56-1.72-8.58-1.82-5.8,3.02
				C47.27,255.1,49.12,256.79,49.12,256.79 M61.38,274.63c6.2,3.94,12.1,5.08,15.37,5.66c3.17,0.58,4.35-0.93-1.43-7.29
				c-4.13-4.51-6.99-6.03-14.5-8.4c-3.76-1.19-8.75-0.59-5.3,3.82C59.31,273.23,61.38,274.63,61.38,274.63 M76.05,290.54
				c6.7,3.02,12.71,3.3,16.03,3.42c3.24,0.1,4.18-1.54-2.45-7.01c-4.72-3.89-7.78-4.98-15.54-6.25c-3.91-0.65-8.74,0.66-4.71,4.53
				C73.8,289.44,76.05,290.54,76.05,290.54 M92.86,304.2c7.06,2.03,13.03,1.46,16.35,1.09c3.21-0.36,3.92-2.13-3.44-6.59
				c-5.22-3.18-8.41-3.82-16.27-3.98c-3.95-0.07-8.56,1.92-4.01,5.16C90.47,303.43,92.86,304.2,92.86,304.2 M111.43,315.3
				c7.28,1,13.12-0.42,16.34-1.25c3.15-0.81,3.58-2.65-4.33-6.03c-5.62-2.39-8.87-2.57-16.67-1.6c-3.93,0.49-8.21,3.11-3.24,5.68
				C108.96,314.89,111.43,315.3,111.43,315.3 M131.4,323.65c7.35-0.05,12.92-2.29,16-3.57c2.98-1.25,3.15-3.15-5.16-5.34
				c-5.91-1.58-9.14-1.3-16.73,0.78c-3.82,1.06-7.67,4.25-2.39,6.08C128.9,323.6,131.4,323.65,131.4,323.65 M152.36,329.06
				c7.27-1.09,12.47-4.1,15.32-5.81c2.79-1.67,2.68-3.57-5.86-4.55c-6.07-0.72-9.24,0.03-16.44,3.16c-3.62,1.58-6.99,5.3-1.5,6.35
				C149.88,329.36,152.36,329.06,152.36,329.06 M173.88,331.41c7.04-2.12,11.75-5.83,14.33-7.94c2.51-2.03,2.14-3.89-6.46-3.66
				c-6.1,0.16-9.13,1.35-15.82,5.49c-3.37,2.08-6.17,6.25-0.58,6.49C171.46,332.08,173.88,331.41,173.88,331.41 M195.51,330.69
				c6.66-3.1,10.78-7.47,13.05-9.91c2.2-2.37,1.56-4.16-6.91-2.71c-6.02,1.04-8.85,2.64-14.87,7.68c-3.04,2.53-5.21,7.05,0.36,6.51
				C193.21,331.68,195.51,330.69,195.51,330.69 M216.83,326.88c6.14-4.01,9.6-8.92,11.49-11.67c1.84-2.66,0.94-4.35-7.23-1.7
				c-5.81,1.9-8.38,3.89-13.63,9.74c-2.64,2.94-4.14,7.72,1.28,6.39C214.68,328.19,216.83,326.88,216.83,326.88 M237.36,320.07
				c5.51-4.85,8.24-10.21,9.72-13.19c1.43-2.9,0.31-4.45-7.4-0.65c-5.48,2.7-7.74,5.03-12.1,11.58c-2.2,3.29-3,8.23,2.17,6.15
				C235.44,321.67,237.36,320.07,237.36,320.07 M256.72,310.39c4.77-5.6,6.71-11.29,7.74-14.44c1.01-3.09-0.33-4.45-7.41,0.41
				c-5.04,3.45-6.94,6.08-10.31,13.18c-1.72,3.57-1.8,8.58,3.02,5.78C255.05,312.25,256.72,310.39,256.72,310.39 M274.51,298.05
				c3.91-6.22,5.02-12.13,5.6-15.41c0.56-3.19-0.94-4.36-7.28,1.48c-4.49,4.14-6.01,7.01-8.33,14.52c-1.18,3.79-0.55,8.76,3.83,5.3
				C273.12,300.13,274.51,298.05,274.51,298.05 M290.35,283.29c2.99-6.71,3.24-12.71,3.35-16.04c0.1-3.24-1.56-4.18-6.99,2.49
				c-3.87,4.73-4.95,7.8-6.18,15.56c-0.63,3.91,0.71,8.75,4.55,4.68C289.27,285.56,290.35,283.29,290.35,283.29 M303.93,266.42
				c1.99-7.06,1.39-13.03,1.02-16.34c-0.38-3.22-2.15-3.9-6.58,3.45c-3.14,5.24-3.78,8.44-3.89,16.3c-0.06,3.95,1.96,8.55,5.17,3.98
				C303.17,268.82,303.93,266.42,303.93,266.42 M314.95,247.8c0.97-7.27-0.49-13.11-1.34-16.34c-0.81-3.12-2.68-3.55-6,4.37
				c-2.36,5.64-2.54,8.88-1.53,16.68c0.5,3.92,3.15,8.18,5.68,3.21C314.55,250.27,314.95,247.8,314.95,247.8 M323.21,227.78
				c-0.09-7.34-2.35-12.91-3.65-15.97c-1.26-2.99-3.16-3.15-5.32,5.17c-1.53,5.91-1.25,9.17,0.87,16.73
				c1.06,3.81,4.29,7.65,6.09,2.36C323.16,230.29,323.21,227.78,323.21,227.78 M328.52,206.8c-1.13-7.25-4.18-12.42-5.91-15.28
				c-1.67-2.76-3.56-2.66-4.53,5.88c-0.67,6.09,0.08,9.24,3.25,16.43c1.6,3.62,5.34,6.97,6.37,1.46
				C328.83,209.29,328.52,206.8,328.52,206.8 M330.77,185.28c-2.15-7.03-5.89-11.73-8-14.3c-2.06-2.49-3.93-2.12-3.64,6.48
				c0.18,6.1,1.38,9.12,5.55,15.79c2.09,3.36,6.27,6.15,6.51,0.55C331.45,187.7,330.77,185.28,330.77,185.28 M329.94,163.65
				c-3.13-6.65-7.5-10.76-9.97-13.01c-2.39-2.18-4.18-1.54-2.67,6.93c1.06,6.01,2.68,8.84,7.76,14.84c2.55,3.02,7.07,5.19,6.5-0.38
				C330.95,165.94,329.94,163.65,329.94,163.65 M326.03,142.36c-4.05-6.14-8.97-9.58-11.73-11.45c-2.67-1.82-4.36-0.93-1.66,7.24
				c1.91,5.8,3.91,8.37,9.8,13.58c2.95,2.62,7.73,4.11,6.39-1.31C327.36,144.48,326.03,142.36,326.03,142.36 M319.11,121.85
				c-4.87-5.5-10.24-8.2-13.23-9.66c-2.9-1.43-4.44-0.3-0.62,7.39c2.73,5.48,5.08,7.73,11.64,12.06c3.31,2.17,8.26,2.95,6.15-2.21
				C320.74,123.77,319.11,121.85,319.11,121.85 M309.35,102.53c-5.61-4.73-11.32-6.65-14.47-7.67c-3.09-1-4.44,0.33,0.44,7.41
				c3.48,5.02,6.12,6.93,13.23,10.26c3.59,1.69,8.59,1.75,5.77-3.07C311.22,104.19,309.35,102.53,309.35,102.53 M296.92,84.8
				c-6.24-3.87-12.14-4.96-15.42-5.51c-3.19-0.54-4.35,0.97,1.5,7.27c4.15,4.48,7.04,5.99,14.57,8.27c3.78,1.16,8.75,0.52,5.26-3.84
				C299.01,86.19,296.92,84.8,296.92,84.8 M282.09,69.05c-6.72-2.97-12.72-3.2-16.05-3.27c-3.24-0.09-4.18,1.58,2.52,6.96
				c4.75,3.85,7.82,4.91,15.6,6.11c3.89,0.61,8.74-0.74,4.66-4.57C284.37,70.09,282.09,69.05,282.09,69.05 M265.17,55.54
				c-7.08-1.96-13.04-1.34-16.35-0.94c-3.21,0.38-3.9,2.17,3.49,6.55c5.27,3.14,8.45,3.75,16.31,3.82c3.94,0.04,8.55-1.98,3.96-5.19
				C267.56,56.28,265.17,55.54,265.17,55.54 M246.49,44.61c-7.29-0.94-13.1,0.54-16.32,1.39c-3.13,0.84-3.55,2.7,4.38,5.99
				c5.65,2.34,8.9,2.51,16.69,1.45c3.92-0.53,8.17-3.18,3.18-5.71C248.97,44.99,246.49,44.61,246.49,44.61 M226.44,36.44
				c-7.35,0.13-12.9,2.42-15.95,3.73c-2.97,1.29-3.13,3.17,5.21,5.31c5.92,1.49,9.16,1.2,16.72-0.97c3.8-1.08,7.63-4.3,2.33-6.09
				C228.94,36.49,226.44,36.44,226.44,36.44 M205.43,31.24c-7.25,1.16-12.42,4.21-15.27,5.96c-2.76,1.7-2.64,3.59,5.91,4.5
				c6.08,0.64,9.24-0.11,16.42-3.32c3.61-1.61,6.94-5.37,1.44-6.35C207.92,30.91,205.43,31.24,205.43,31.24 M180.01,43.38
				c-75.46,0-136.63,61.17-136.63,136.63c0,75.45,61.18,136.61,136.63,136.61c75.45,0,136.62-61.16,136.62-136.61
				C316.63,104.55,255.46,43.38,180.01,43.38 M335.42,180.01c0,85.83-69.58,155.41-155.42,155.41S24.58,265.84,24.58,180.01
				c0-85.84,69.6-155.43,155.43-155.43S335.42,94.17,335.42,180.01"/>
			<path class="st4" d="M186.75,29.18c-7.05,2.06-11.8,5.73-14.41,7.81c-2.53,2.02-2.17,3.88,6.42,3.73
				c6.1-0.1,9.14-1.26,15.87-5.33c3.39-2.05,6.22-6.2,0.64-6.5C189.17,28.54,186.75,29.18,186.75,29.18 M165.11,29.71
				c-6.69,3.04-10.87,7.37-13.15,9.79c-2.22,2.35-1.59,4.15,6.89,2.77c6.03-0.98,8.87-2.56,14.95-7.54
				c3.06-2.51,5.27-7.02-0.29-6.52C167.41,28.74,165.11,29.71,165.11,29.71 M143.77,33.33c-6.2,3.95-9.7,8.82-11.62,11.56
				c-1.85,2.65-0.98,4.34,7.21,1.75c5.83-1.83,8.42-3.78,13.72-9.59c2.66-2.93,4.22-7.7-1.22-6.41
				C145.91,32.03,143.77,33.33,143.77,33.33 M123.16,39.94c-5.56,4.79-8.34,10.13-9.85,13.1c-1.46,2.87-0.34,4.43,7.4,0.72
				c5.51-2.65,7.79-4.97,12.21-11.47c2.22-3.28,3.06-8.22-2.14-6.17C125.09,38.34,123.16,39.94,123.16,39.94 M103.71,49.43
				c-4.82,5.56-6.81,11.22-7.88,14.38c-1.04,3.07,0.26,4.45,7.4-0.35c5.07-3.4,7.01-6.02,10.45-13.09c1.73-3.54,1.87-8.56-2.98-5.81
				C105.4,47.59,103.71,49.43,103.71,49.43 M85.81,61.6c-3.98,6.18-5.14,12.08-5.75,15.35c-0.58,3.19,0.92,4.36,7.29-1.4
				c4.54-4.09,6.08-6.96,8.48-14.45c1.2-3.76,0.63-8.75-3.79-5.32C87.21,59.53,85.81,61.6,85.81,61.6 M69.82,76.22
				c-3.05,6.68-3.35,12.67-3.49,16c-0.13,3.23,1.53,4.19,7.02-2.43c3.9-4.69,5.02-7.75,6.32-15.5c0.66-3.89-0.62-8.75-4.5-4.73
				C70.93,73.95,69.82,76.22,69.82,76.22 M56.1,92.93c-2.07,7.06-1.52,13.05-1.18,16.35c0.33,3.22,2.11,3.93,6.6-3.4
				c3.2-5.21,3.86-8.39,4.06-16.24c0.09-3.96-1.88-8.58-5.15-4.04C56.87,90.56,56.1,92.93,56.1,92.93 M44.89,111.48
				c-1.03,7.28,0.37,13.12,1.18,16.34c0.79,3.13,2.65,3.58,6.04-4.31c2.42-5.61,2.62-8.85,1.7-16.66c-0.47-3.92-3.08-8.22-5.67-3.26
				C45.31,109.01,44.89,111.48,44.89,111.48 M36.46,131.41c0,7.33,2.23,12.92,3.49,16c1.23,3,3.13,3.18,5.37-5.12
				c1.6-5.9,1.33-9.14-0.71-16.74c-1.02-3.82-4.21-7.69-6.06-2.41C36.52,128.89,36.46,131.41,36.46,131.41 M30.94,152.33
				c1.06,7.28,4.06,12.48,5.76,15.36c1.64,2.77,3.54,2.69,4.57-5.85c0.74-6.07,0.02-9.24-3.08-16.47c-1.57-3.64-5.29-7-6.35-1.53
				C30.65,149.84,30.94,152.33,30.94,152.33 M28.47,173.83c2.08,7.04,5.8,11.78,7.88,14.38c2.02,2.53,3.89,2.16,3.69-6.44
				c-0.14-6.1-1.3-9.15-5.41-15.85c-2.07-3.37-6.22-6.2-6.5-0.62C27.83,171.41,28.47,173.83,28.47,173.83 M29.11,195.47
				c3.07,6.68,7.41,10.83,9.85,13.08c2.36,2.22,4.15,1.6,2.73-6.89c-1.01-6.03-2.61-8.86-7.62-14.92c-2.52-3.05-7.03-5.24-6.51,0.34
				C28.12,193.17,29.11,195.47,29.11,195.47 M32.81,216.79c3.99,6.17,8.89,9.66,11.62,11.57c2.66,1.84,4.34,0.96,1.72-7.22
				c-1.85-5.83-3.84-8.41-9.66-13.69c-2.93-2.64-7.71-4.17-6.4,1.27C31.51,214.65,32.81,216.79,32.81,216.79 M39.53,237.38
				c4.84,5.53,10.17,8.29,13.15,9.77c2.89,1.45,4.44,0.34,0.67-7.38c-2.66-5.5-4.99-7.78-11.51-12.16
				c-3.28-2.22-8.23-3.03-6.16,2.15C37.94,235.45,39.53,237.38,39.53,237.38 M49.12,256.79c5.57,4.79,11.25,6.73,14.41,7.8
				c3.07,1.02,4.44-0.3-0.38-7.41c-3.43-5.07-6.05-6.99-13.13-10.39c-3.56-1.72-8.58-1.82-5.8,3.02
				C47.27,255.1,49.12,256.79,49.12,256.79 M61.38,274.63c6.2,3.94,12.1,5.08,15.37,5.66c3.17,0.58,4.35-0.93-1.43-7.29
				c-4.13-4.51-6.99-6.03-14.5-8.4c-3.76-1.19-8.75-0.59-5.3,3.82C59.31,273.23,61.38,274.63,61.38,274.63 M76.05,290.54
				c6.7,3.02,12.71,3.3,16.03,3.42c3.24,0.1,4.18-1.54-2.45-7.01c-4.72-3.89-7.78-4.98-15.54-6.25c-3.91-0.65-8.74,0.66-4.71,4.53
				C73.8,289.44,76.05,290.54,76.05,290.54 M92.86,304.2c7.06,2.03,13.03,1.46,16.35,1.09c3.21-0.36,3.92-2.13-3.44-6.59
				c-5.22-3.18-8.41-3.82-16.27-3.98c-3.95-0.07-8.56,1.92-4.01,5.16C90.47,303.43,92.86,304.2,92.86,304.2 M111.43,315.3
				c7.28,1,13.12-0.42,16.34-1.25c3.15-0.81,3.58-2.65-4.33-6.03c-5.62-2.39-8.87-2.57-16.67-1.6c-3.93,0.49-8.21,3.11-3.24,5.68
				C108.96,314.89,111.43,315.3,111.43,315.3 M131.4,323.65c7.35-0.05,12.92-2.29,16-3.57c2.98-1.25,3.15-3.15-5.16-5.34
				c-5.91-1.58-9.14-1.3-16.73,0.78c-3.82,1.06-7.67,4.25-2.39,6.08C128.9,323.6,131.4,323.65,131.4,323.65 M152.36,329.06
				c7.27-1.09,12.47-4.1,15.32-5.81c2.79-1.67,2.68-3.57-5.86-4.55c-6.07-0.72-9.24,0.03-16.44,3.16c-3.62,1.58-6.99,5.3-1.5,6.35
				C149.88,329.36,152.36,329.06,152.36,329.06 M173.88,331.41c7.04-2.12,11.75-5.83,14.33-7.94c2.51-2.03,2.14-3.89-6.46-3.66
				c-6.1,0.16-9.13,1.35-15.82,5.49c-3.37,2.08-6.17,6.25-0.58,6.49C171.46,332.08,173.88,331.41,173.88,331.41 M195.51,330.69
				c6.66-3.1,10.78-7.47,13.05-9.91c2.2-2.37,1.56-4.16-6.91-2.71c-6.02,1.04-8.85,2.64-14.87,7.68c-3.04,2.53-5.21,7.05,0.36,6.51
				C193.21,331.68,195.51,330.69,195.51,330.69 M216.83,326.88c6.14-4.01,9.6-8.92,11.49-11.67c1.84-2.66,0.94-4.35-7.23-1.7
				c-5.81,1.9-8.38,3.89-13.63,9.74c-2.64,2.94-4.14,7.72,1.28,6.39C214.68,328.19,216.83,326.88,216.83,326.88 M237.36,320.07
				c5.51-4.85,8.24-10.21,9.72-13.19c1.43-2.9,0.31-4.45-7.4-0.65c-5.48,2.7-7.74,5.03-12.1,11.58c-2.2,3.29-3,8.23,2.17,6.15
				C235.44,321.67,237.36,320.07,237.36,320.07 M256.72,310.39c4.77-5.6,6.71-11.29,7.74-14.44c1.01-3.09-0.33-4.45-7.41,0.41
				c-5.04,3.45-6.94,6.08-10.31,13.18c-1.72,3.57-1.8,8.58,3.02,5.78C255.05,312.25,256.72,310.39,256.72,310.39 M274.51,298.05
				c3.91-6.22,5.02-12.13,5.6-15.41c0.56-3.19-0.94-4.36-7.28,1.48c-4.49,4.14-6.01,7.01-8.33,14.52c-1.18,3.79-0.55,8.76,3.83,5.3
				C273.12,300.13,274.51,298.05,274.51,298.05 M290.35,283.29c2.99-6.71,3.24-12.71,3.35-16.04c0.1-3.24-1.56-4.18-6.99,2.49
				c-3.87,4.73-4.95,7.8-6.18,15.56c-0.63,3.91,0.71,8.75,4.55,4.68C289.27,285.56,290.35,283.29,290.35,283.29 M303.93,266.42
				c1.99-7.06,1.39-13.03,1.02-16.34c-0.38-3.22-2.15-3.9-6.58,3.45c-3.14,5.24-3.78,8.44-3.89,16.3c-0.06,3.95,1.96,8.55,5.17,3.98
				C303.17,268.82,303.93,266.42,303.93,266.42 M314.95,247.8c0.97-7.27-0.49-13.11-1.34-16.34c-0.81-3.12-2.68-3.55-6,4.37
				c-2.36,5.64-2.54,8.88-1.53,16.68c0.5,3.92,3.15,8.18,5.68,3.21C314.55,250.27,314.95,247.8,314.95,247.8 M323.21,227.78
				c-0.09-7.34-2.35-12.91-3.65-15.97c-1.26-2.99-3.16-3.15-5.32,5.17c-1.53,5.91-1.25,9.17,0.87,16.73
				c1.06,3.81,4.29,7.65,6.09,2.36C323.16,230.29,323.21,227.78,323.21,227.78 M328.52,206.8c-1.13-7.25-4.18-12.42-5.91-15.28
				c-1.67-2.76-3.56-2.66-4.53,5.88c-0.67,6.09,0.08,9.24,3.25,16.43c1.6,3.62,5.34,6.97,6.37,1.46
				C328.83,209.29,328.52,206.8,328.52,206.8 M330.77,185.28c-2.15-7.03-5.89-11.73-8-14.3c-2.06-2.49-3.93-2.12-3.64,6.48
				c0.18,6.1,1.38,9.12,5.55,15.79c2.09,3.36,6.27,6.15,6.51,0.55C331.45,187.7,330.77,185.28,330.77,185.28 M329.94,163.65
				c-3.13-6.65-7.5-10.76-9.97-13.01c-2.39-2.18-4.18-1.54-2.67,6.93c1.06,6.01,2.68,8.84,7.76,14.84c2.55,3.02,7.07,5.19,6.5-0.38
				C330.95,165.94,329.94,163.65,329.94,163.65 M326.03,142.36c-4.05-6.14-8.97-9.58-11.73-11.45c-2.67-1.82-4.36-0.93-1.66,7.24
				c1.91,5.8,3.91,8.37,9.8,13.58c2.95,2.62,7.73,4.11,6.39-1.31C327.36,144.48,326.03,142.36,326.03,142.36 M319.11,121.85
				c-4.87-5.5-10.24-8.2-13.23-9.66c-2.9-1.43-4.44-0.3-0.62,7.39c2.73,5.48,5.08,7.73,11.64,12.06c3.31,2.17,8.26,2.95,6.15-2.21
				C320.74,123.77,319.11,121.85,319.11,121.85 M309.35,102.53c-5.61-4.73-11.32-6.65-14.47-7.67c-3.09-1-4.44,0.33,0.44,7.41
				c3.48,5.02,6.12,6.93,13.23,10.26c3.59,1.69,8.59,1.75,5.77-3.07C311.22,104.19,309.35,102.53,309.35,102.53 M296.92,84.8
				c-6.24-3.87-12.14-4.96-15.42-5.51c-3.19-0.54-4.35,0.97,1.5,7.27c4.15,4.48,7.04,5.99,14.57,8.27c3.78,1.16,8.75,0.52,5.26-3.84
				C299.01,86.19,296.92,84.8,296.92,84.8 M282.09,69.05c-6.72-2.97-12.72-3.2-16.05-3.27c-3.24-0.09-4.18,1.58,2.52,6.96
				c4.75,3.85,7.82,4.91,15.6,6.11c3.89,0.61,8.74-0.74,4.66-4.57C284.37,70.09,282.09,69.05,282.09,69.05 M265.17,55.54
				c-7.08-1.96-13.04-1.34-16.35-0.94c-3.21,0.38-3.9,2.17,3.49,6.55c5.27,3.14,8.45,3.75,16.31,3.82c3.94,0.04,8.55-1.98,3.96-5.19
				C267.56,56.28,265.17,55.54,265.17,55.54 M246.49,44.61c-7.29-0.94-13.1,0.54-16.32,1.39c-3.13,0.84-3.55,2.7,4.38,5.99
				c5.65,2.34,8.9,2.51,16.69,1.45c3.92-0.53,8.17-3.18,3.18-5.71C248.97,44.99,246.49,44.61,246.49,44.61 M226.44,36.44
				c-7.35,0.13-12.9,2.42-15.95,3.73c-2.97,1.29-3.13,3.17,5.21,5.31c5.92,1.49,9.16,1.2,16.72-0.97c3.8-1.08,7.63-4.3,2.33-6.09
				C228.94,36.49,226.44,36.44,226.44,36.44 M205.43,31.24c-7.25,1.16-12.42,4.21-15.27,5.96c-2.76,1.7-2.64,3.59,5.91,4.5
				c6.08,0.64,9.24-0.11,16.42-3.32c3.61-1.61,6.94-5.37,1.44-6.35C207.92,30.91,205.43,31.24,205.43,31.24 M180.01,43.38
				c-75.46,0-136.63,61.17-136.63,136.63c0,75.45,61.18,136.61,136.63,136.61c75.45,0,136.62-61.16,136.62-136.61
				C316.63,104.55,255.46,43.38,180.01,43.38 M335.42,180.01c0,85.83-69.58,155.41-155.42,155.41S24.58,265.84,24.58,180.01
				c0-85.84,69.6-155.43,155.43-155.43S335.42,94.17,335.42,180.01"/>
			<path class="st6" d="M186.75,29.18c-7.05,2.06-11.8,5.73-14.41,7.81c-2.53,2.02-2.17,3.88,6.42,3.73
				c6.1-0.1,9.14-1.26,15.87-5.33c3.39-2.05,6.22-6.2,0.64-6.5C189.17,28.54,186.75,29.18,186.75,29.18z M165.11,29.71
				c-6.69,3.04-10.87,7.37-13.15,9.79c-2.22,2.35-1.59,4.15,6.89,2.77c6.03-0.98,8.87-2.56,14.95-7.54
				c3.06-2.51,5.27-7.02-0.29-6.52C167.41,28.74,165.11,29.71,165.11,29.71z M143.77,33.33c-6.2,3.95-9.7,8.82-11.62,11.56
				c-1.85,2.65-0.98,4.34,7.21,1.75c5.83-1.83,8.42-3.78,13.72-9.59c2.66-2.93,4.22-7.7-1.22-6.41
				C145.91,32.03,143.77,33.33,143.77,33.33z M123.16,39.94c-5.56,4.79-8.34,10.13-9.85,13.1c-1.46,2.87-0.34,4.43,7.4,0.72
				c5.51-2.65,7.79-4.97,12.21-11.47c2.22-3.28,3.06-8.22-2.14-6.17C125.09,38.34,123.16,39.94,123.16,39.94z M103.71,49.43
				c-4.82,5.56-6.81,11.22-7.88,14.38c-1.04,3.07,0.26,4.45,7.4-0.35c5.07-3.4,7.01-6.02,10.45-13.09c1.73-3.54,1.87-8.56-2.98-5.81
				C105.4,47.59,103.71,49.43,103.71,49.43z M85.81,61.6c-3.98,6.18-5.14,12.08-5.75,15.35c-0.58,3.19,0.92,4.36,7.29-1.4
				c4.54-4.09,6.08-6.96,8.48-14.45c1.2-3.76,0.63-8.75-3.79-5.32C87.21,59.53,85.81,61.6,85.81,61.6z M69.82,76.22
				c-3.05,6.68-3.35,12.67-3.49,16c-0.13,3.23,1.53,4.19,7.02-2.43c3.9-4.69,5.02-7.75,6.32-15.5c0.66-3.89-0.62-8.75-4.5-4.73
				C70.93,73.95,69.82,76.22,69.82,76.22z M56.1,92.93c-2.07,7.06-1.52,13.05-1.18,16.35c0.33,3.22,2.11,3.93,6.6-3.4
				c3.2-5.21,3.86-8.39,4.06-16.24c0.09-3.96-1.88-8.58-5.15-4.04C56.87,90.56,56.1,92.93,56.1,92.93z M44.89,111.48
				c-1.03,7.28,0.37,13.12,1.18,16.34c0.79,3.13,2.65,3.58,6.04-4.31c2.42-5.61,2.62-8.85,1.7-16.66c-0.47-3.92-3.08-8.22-5.67-3.26
				C45.31,109.01,44.89,111.48,44.89,111.48z M36.46,131.41c0,7.33,2.23,12.92,3.49,16c1.23,3,3.13,3.18,5.37-5.12
				c1.6-5.9,1.33-9.14-0.71-16.74c-1.02-3.82-4.21-7.69-6.06-2.41C36.52,128.89,36.46,131.41,36.46,131.41z M30.94,152.33
				c1.06,7.28,4.06,12.48,5.76,15.36c1.64,2.77,3.54,2.69,4.57-5.85c0.74-6.07,0.02-9.24-3.08-16.47c-1.57-3.64-5.29-7-6.35-1.53
				C30.65,149.84,30.94,152.33,30.94,152.33z M28.47,173.83c2.08,7.04,5.8,11.78,7.88,14.38c2.02,2.53,3.89,2.16,3.69-6.44
				c-0.14-6.1-1.3-9.15-5.41-15.85c-2.07-3.37-6.22-6.2-6.5-0.62C27.83,171.41,28.47,173.83,28.47,173.83z M29.11,195.47
				c3.07,6.68,7.41,10.83,9.85,13.08c2.36,2.22,4.15,1.6,2.73-6.89c-1.01-6.03-2.61-8.86-7.62-14.92c-2.52-3.05-7.03-5.24-6.51,0.34
				C28.12,193.17,29.11,195.47,29.11,195.47z M32.81,216.79c3.99,6.17,8.89,9.66,11.62,11.57c2.66,1.84,4.34,0.96,1.72-7.22
				c-1.85-5.83-3.84-8.41-9.66-13.69c-2.93-2.64-7.71-4.17-6.4,1.27C31.51,214.65,32.81,216.79,32.81,216.79z M39.53,237.38
				c4.84,5.53,10.17,8.29,13.15,9.77c2.89,1.45,4.44,0.34,0.67-7.38c-2.66-5.5-4.99-7.78-11.51-12.16
				c-3.28-2.22-8.23-3.03-6.16,2.15C37.94,235.45,39.53,237.38,39.53,237.38z M49.12,256.79c5.57,4.79,11.25,6.73,14.41,7.8
				c3.07,1.02,4.44-0.3-0.38-7.41c-3.43-5.07-6.05-6.99-13.13-10.39c-3.56-1.72-8.58-1.82-5.8,3.02
				C47.27,255.1,49.12,256.79,49.12,256.79z M61.38,274.63c6.2,3.94,12.1,5.08,15.37,5.66c3.17,0.58,4.35-0.93-1.43-7.29
				c-4.13-4.51-6.99-6.03-14.5-8.4c-3.76-1.19-8.75-0.59-5.3,3.82C59.31,273.23,61.38,274.63,61.38,274.63z M76.05,290.54
				c6.7,3.02,12.71,3.3,16.03,3.42c3.24,0.1,4.18-1.54-2.45-7.01c-4.72-3.89-7.78-4.98-15.54-6.25c-3.91-0.65-8.74,0.66-4.71,4.53
				C73.8,289.44,76.05,290.54,76.05,290.54z M92.86,304.2c7.06,2.03,13.03,1.46,16.35,1.09c3.21-0.36,3.92-2.13-3.44-6.59
				c-5.22-3.18-8.41-3.82-16.27-3.98c-3.95-0.07-8.56,1.92-4.01,5.16C90.47,303.43,92.86,304.2,92.86,304.2z M111.43,315.3
				c7.28,1,13.12-0.42,16.34-1.25c3.15-0.81,3.58-2.65-4.33-6.03c-5.62-2.39-8.87-2.57-16.67-1.6c-3.93,0.49-8.21,3.11-3.24,5.68
				C108.96,314.89,111.43,315.3,111.43,315.3z M131.4,323.65c7.35-0.05,12.92-2.29,16-3.57c2.98-1.25,3.15-3.15-5.16-5.34
				c-5.91-1.58-9.14-1.3-16.73,0.78c-3.82,1.06-7.67,4.25-2.39,6.08C128.9,323.6,131.4,323.65,131.4,323.65z M152.36,329.06
				c7.27-1.09,12.47-4.1,15.32-5.81c2.79-1.67,2.68-3.57-5.86-4.55c-6.07-0.72-9.24,0.03-16.44,3.16c-3.62,1.58-6.99,5.3-1.5,6.35
				C149.88,329.36,152.36,329.06,152.36,329.06z M173.88,331.41c7.04-2.12,11.75-5.83,14.33-7.94c2.51-2.03,2.14-3.89-6.46-3.66
				c-6.1,0.16-9.13,1.35-15.82,5.49c-3.37,2.08-6.17,6.25-0.58,6.49C171.46,332.08,173.88,331.41,173.88,331.41z M195.51,330.69
				c6.66-3.1,10.78-7.47,13.05-9.91c2.2-2.37,1.56-4.16-6.91-2.71c-6.02,1.04-8.85,2.64-14.87,7.68c-3.04,2.53-5.21,7.05,0.36,6.51
				C193.21,331.68,195.51,330.69,195.51,330.69z M216.83,326.88c6.14-4.01,9.6-8.92,11.49-11.67c1.84-2.66,0.94-4.35-7.23-1.7
				c-5.81,1.9-8.38,3.89-13.63,9.74c-2.64,2.94-4.14,7.72,1.28,6.39C214.68,328.19,216.83,326.88,216.83,326.88z M237.36,320.07
				c5.51-4.85,8.24-10.21,9.72-13.19c1.43-2.9,0.31-4.45-7.4-0.65c-5.48,2.7-7.74,5.03-12.1,11.58c-2.2,3.29-3,8.23,2.17,6.15
				C235.44,321.67,237.36,320.07,237.36,320.07z M256.72,310.39c4.77-5.6,6.71-11.29,7.74-14.44c1.01-3.09-0.33-4.45-7.41,0.41
				c-5.04,3.45-6.94,6.08-10.31,13.18c-1.72,3.57-1.8,8.58,3.02,5.78C255.05,312.25,256.72,310.39,256.72,310.39z M274.51,298.05
				c3.91-6.22,5.02-12.13,5.6-15.41c0.56-3.19-0.94-4.36-7.28,1.48c-4.49,4.14-6.01,7.01-8.33,14.52c-1.18,3.79-0.55,8.76,3.83,5.3
				C273.12,300.13,274.51,298.05,274.51,298.05z M290.35,283.29c2.99-6.71,3.24-12.71,3.35-16.04c0.1-3.24-1.56-4.18-6.99,2.49
				c-3.87,4.73-4.95,7.8-6.18,15.56c-0.63,3.91,0.71,8.75,4.55,4.68C289.27,285.56,290.35,283.29,290.35,283.29z M303.93,266.42
				c1.99-7.06,1.39-13.03,1.02-16.34c-0.38-3.22-2.15-3.9-6.58,3.45c-3.14,5.24-3.78,8.44-3.89,16.3c-0.06,3.95,1.96,8.55,5.17,3.98
				C303.17,268.82,303.93,266.42,303.93,266.42z M314.95,247.8c0.97-7.27-0.49-13.11-1.34-16.34c-0.81-3.12-2.68-3.55-6,4.37
				c-2.36,5.64-2.54,8.88-1.53,16.68c0.5,3.92,3.15,8.18,5.68,3.21C314.55,250.27,314.95,247.8,314.95,247.8z M323.21,227.78
				c-0.09-7.34-2.35-12.91-3.65-15.97c-1.26-2.99-3.16-3.15-5.32,5.17c-1.53,5.91-1.25,9.17,0.87,16.73
				c1.06,3.81,4.29,7.65,6.09,2.36C323.16,230.29,323.21,227.78,323.21,227.78z M328.52,206.8c-1.13-7.25-4.18-12.42-5.91-15.28
				c-1.67-2.76-3.56-2.66-4.53,5.88c-0.67,6.09,0.08,9.24,3.25,16.43c1.6,3.62,5.34,6.97,6.37,1.46
				C328.83,209.29,328.52,206.8,328.52,206.8z M330.77,185.28c-2.15-7.03-5.89-11.73-8-14.3c-2.06-2.49-3.93-2.12-3.64,6.48
				c0.18,6.1,1.38,9.12,5.55,15.79c2.09,3.36,6.27,6.15,6.51,0.55C331.45,187.7,330.77,185.28,330.77,185.28z M329.94,163.65
				c-3.13-6.65-7.5-10.76-9.97-13.01c-2.39-2.18-4.18-1.54-2.67,6.93c1.06,6.01,2.68,8.84,7.76,14.84c2.55,3.02,7.07,5.19,6.5-0.38
				C330.95,165.94,329.94,163.65,329.94,163.65z M326.03,142.36c-4.05-6.14-8.97-9.58-11.73-11.45c-2.67-1.82-4.36-0.93-1.66,7.24
				c1.91,5.8,3.91,8.37,9.8,13.58c2.95,2.62,7.73,4.11,6.39-1.31C327.36,144.48,326.03,142.36,326.03,142.36z M319.11,121.85
				c-4.87-5.5-10.24-8.2-13.23-9.66c-2.9-1.43-4.44-0.3-0.62,7.39c2.73,5.48,5.08,7.73,11.64,12.06c3.31,2.17,8.26,2.95,6.15-2.21
				C320.74,123.77,319.11,121.85,319.11,121.85z M309.35,102.53c-5.61-4.73-11.32-6.65-14.47-7.67c-3.09-1-4.44,0.33,0.44,7.41
				c3.48,5.02,6.12,6.93,13.23,10.26c3.59,1.69,8.59,1.75,5.77-3.07C311.22,104.19,309.35,102.53,309.35,102.53z M296.92,84.8
				c-6.24-3.87-12.14-4.96-15.42-5.51c-3.19-0.54-4.35,0.97,1.5,7.27c4.15,4.48,7.04,5.99,14.57,8.27c3.78,1.16,8.75,0.52,5.26-3.84
				C299.01,86.19,296.92,84.8,296.92,84.8z M282.09,69.05c-6.72-2.97-12.72-3.2-16.05-3.27c-3.24-0.09-4.18,1.58,2.52,6.96
				c4.75,3.85,7.82,4.91,15.6,6.11c3.89,0.61,8.74-0.74,4.66-4.57C284.37,70.09,282.09,69.05,282.09,69.05z M265.17,55.54
				c-7.08-1.96-13.04-1.34-16.35-0.94c-3.21,0.38-3.9,2.17,3.49,6.55c5.27,3.14,8.45,3.75,16.31,3.82c3.94,0.04,8.55-1.98,3.96-5.19
				C267.56,56.28,265.17,55.54,265.17,55.54z M246.49,44.61c-7.29-0.94-13.1,0.54-16.32,1.39c-3.13,0.84-3.55,2.7,4.38,5.99
				c5.65,2.34,8.9,2.51,16.69,1.45c3.92-0.53,8.17-3.18,3.18-5.71C248.97,44.99,246.49,44.61,246.49,44.61z M226.44,36.44
				c-7.35,0.13-12.9,2.42-15.95,3.73c-2.97,1.29-3.13,3.17,5.21,5.31c5.92,1.49,9.16,1.2,16.72-0.97c3.8-1.08,7.63-4.3,2.33-6.09
				C228.94,36.49,226.44,36.44,226.44,36.44z M205.43,31.24c-7.25,1.16-12.42,4.21-15.27,5.96c-2.76,1.7-2.64,3.59,5.91,4.5
				c6.08,0.64,9.24-0.11,16.42-3.32c3.61-1.61,6.94-5.37,1.44-6.35C207.92,30.91,205.43,31.24,205.43,31.24z M180.01,43.38
				c-75.46,0-136.63,61.17-136.63,136.63c0,75.45,61.18,136.61,136.63,136.61c75.45,0,136.62-61.16,136.62-136.61
				C316.63,104.55,255.46,43.38,180.01,43.38z M335.42,180.01c0,85.83-69.58,155.41-155.42,155.41S24.58,265.84,24.58,180.01
				c0-85.84,69.6-155.43,155.43-155.43S335.42,94.17,335.42,180.01z"/>
			<path class="st4" d="M109.44,264.21l-2.41,2.55c-0.67-1.58-1.24-2.67-1.71-3.31c-0.47-0.64-0.95-1.17-1.42-1.61
				c-0.85-0.81-1.66-1.23-2.46-1.25c-0.77,0-1.42,0.25-1.92,0.79c-0.39,0.41-0.63,0.89-0.71,1.42c-0.09,0.54,0.08,1.51,0.51,2.89
				l0.48,1.48c0.67,2.13,0.94,3.77,0.8,4.91c-0.12,1.14-0.61,2.17-1.43,3.03c-1.05,1.12-2.37,1.65-3.96,1.63
				c-1.59,0-3.17-0.78-4.76-2.27c-1.18-1.12-2.36-2.55-3.53-4.29l2.19-2.31c1.01,1.96,1.96,3.36,2.83,4.19
				c0.74,0.71,1.45,1.07,2.14,1.12c0.68,0.04,1.23-0.17,1.66-0.6c0.33-0.35,0.52-0.77,0.59-1.28c0.06-0.5-0.11-1.45-0.55-2.84
				l-0.5-1.59c-0.76-2.45-1.05-4.21-0.86-5.3c0.2-1.09,0.69-2.06,1.49-2.9c1.13-1.18,2.56-1.79,4.28-1.76
				c1.72,0,3.59,0.98,5.59,2.87C106.96,260.92,108.18,262.4,109.44,264.21"/>
			<polygon class="st4" points="97.44,251.85 81.88,264.82 79.16,261.58 94.73,248.6 			"/>
			<path class="st4" d="M82.4,231.23c1.36,1.28,2.29,2.26,2.82,2.9c0.53,0.65,1.02,1.36,1.51,2.13c2,3.25,2.61,6.11,1.82,8.64
				c-0.79,2.52-2.5,4.61-5.11,6.23c-1.7,1.07-3.44,1.69-5.2,1.91c-1.76,0.21-3.44-0.1-5.02-0.92c-1.59-0.82-3.07-2.34-4.47-4.57
				c-1.17-1.87-2.11-3.87-2.81-6.01l2.79-1.72c0.43,1.87,0.81,3.19,1.13,3.93c0.32,0.74,0.67,1.42,1.05,2.04
				c1.25,2.01,2.81,3.04,4.66,3.12c1.85,0.07,3.71-0.47,5.56-1.63c2.02-1.27,3.3-2.77,3.85-4.58c0.54-1.77,0.23-3.62-0.96-5.5
				c-0.25-0.41-0.6-0.85-1.06-1.33l-5.68,3.53l-2.24-3.59L82.4,231.23z"/>
			<polygon class="st4" points="81.01,226.59 62.49,234.83 60.78,230.97 79.29,222.72 			"/>
			<polygon class="st4" points="77.28,217.94 57.91,223.92 56.66,219.87 73.28,214.75 70.57,206.02 73.33,205.17 			"/>
			<polygon class="st4" points="72.83,202.3 52.79,205.32 52.16,201.14 69.36,198.56 68,189.52 70.84,189.08 			"/>
			<path class="st4" d="M50.37,185.95l0.08-4.23l12.41,0.21c2.24,0.04,3.74-0.3,4.48-1.07c0.74-0.73,1.13-1.73,1.14-2.95
				c0.03-1.2-0.32-2.15-1.03-2.87c-0.7-0.73-2.09-1.11-4.15-1.13l-12.71-0.24l0.06-3.66l12.42,0.22c2.35,0.05,4.02,0.39,5.02,0.97
				c1,0.61,1.79,1.48,2.35,2.61c0.57,1.12,0.83,2.53,0.8,4.24c-0.02,1.69-0.31,3.13-0.89,4.33c-0.56,1.19-1.38,2.13-2.46,2.81
				c-1.09,0.68-2.8,1.01-5.14,0.97L50.37,185.95z"/>
			<polygon class="st4" points="71.23,165.8 51.47,161.27 52.74,155.72 67.77,154.2 54.95,146.12 56.03,141.37 75.79,145.88 
				74.92,149.65 60,146.24 72.55,154.14 71.77,157.52 56.87,159.02 71.99,162.49 			"/>
			<path class="st4" d="M75.74,133.63c-0.34,0.75-0.9,1.28-1.69,1.58c-0.8,0.3-1.57,0.28-2.32-0.06c-0.76-0.33-1.29-0.9-1.58-1.69
				c-0.29-0.79-0.28-1.57,0.06-2.31c0.34-0.75,0.9-1.28,1.68-1.58c0.79-0.3,1.55-0.3,2.32,0.06c0.74,0.34,1.28,0.9,1.58,1.69
				C76.09,132.11,76.07,132.88,75.74,133.63"/>
			<path class="st4" d="M93.66,111.43c-0.17,0.95-0.39,1.74-0.63,2.36c-0.24,0.64-0.56,1.33-0.96,2.07
				c-0.39,0.75-0.81,1.46-1.27,2.14c-1.98,2.94-4.29,4.58-6.92,4.91c-2.62,0.32-5.22-0.38-7.77-2.09c-2.59-1.74-4.19-3.89-4.86-6.44
				c-0.67-2.55,0.04-5.37,2.12-8.47c1.24-1.83,2.68-3.48,4.34-5l2.73,1.83c-0.89,0.66-1.59,1.23-2.12,1.69
				c-0.51,0.45-0.97,0.91-1.38,1.35c-0.4,0.46-0.77,0.94-1.1,1.43c-1.32,1.92-1.63,3.75-0.98,5.46c0.64,1.7,1.87,3.16,3.7,4.39
				c1.91,1.28,3.79,1.85,5.64,1.65c1.84-0.19,3.44-1.27,4.75-3.22c1.1-1.63,1.8-3.55,2.11-5.81L93.66,111.43z"/>
			<path class="st4" d="M101.26,101.27c1.38-1.35,1.85-2.95,1.39-4.74c-0.44-1.8-1.39-3.42-2.84-4.87
				c-1.45-1.46-3.07-2.41-4.87-2.86c-1.79-0.44-3.36,0.01-4.74,1.38c-1.37,1.38-1.85,2.95-1.4,4.75c0.44,1.79,1.38,3.41,2.84,4.87
				c1.45,1.45,3.06,2.4,4.86,2.85C98.29,103.12,99.88,102.66,101.26,101.27 M103.22,103.24c-1.49,1.48-3.1,2.47-4.81,2.95
				c-1.72,0.49-3.45,0.44-5.17-0.15c-1.72-0.58-3.32-1.59-4.78-3.06c-1.45-1.46-2.47-3.06-3.06-4.79c-0.57-1.73-0.61-3.46-0.11-5.18
				c0.49-1.73,1.48-3.31,2.97-4.8c1.46-1.46,3.06-2.45,4.78-2.92c1.72-0.49,3.45-0.45,5.18,0.13c1.73,0.59,3.33,1.61,4.77,3.07
				c1.46,1.46,2.47,3.07,3.05,4.8c0.58,1.73,0.63,3.45,0.13,5.15C105.69,100.16,104.7,101.76,103.22,103.24"/>
			<polygon class="st4" points="113.18,93.67 101.63,77.01 105.12,74.61 115.02,88.9 122.54,83.69 124.17,86.05 			"/>
			<polygon class="st4" points="126.76,84.71 117.8,66.53 121.59,64.66 129.29,80.27 137.48,76.23 138.75,78.8 			"/>
			<polygon class="st4" points="141.48,77.85 135.4,58.53 147.85,54.61 148.68,57.24 140.26,59.9 141.97,65.32 148.95,63.12 
				149.78,65.77 142.8,67.97 144.65,73.83 153.67,71 154.53,73.74 			"/>
			<path class="st4" d="M173.46,70.4c-1.74,0.7-2.99,1.16-3.81,1.36c-0.81,0.21-1.66,0.37-2.58,0.49c-3.76,0.51-6.64-0.12-8.62-1.88
				c-1.97-1.76-3.17-4.17-3.57-7.21c-0.27-1.98-0.14-3.84,0.4-5.53c0.54-1.68,1.5-3.09,2.9-4.2c1.4-1.11,3.4-1.84,6-2.19
				c2.19-0.29,4.4-0.33,6.63-0.09l0.44,3.25c-1.9-0.37-3.25-0.57-4.06-0.58c-0.8-0.02-1.57,0.03-2.29,0.12
				c-2.34,0.31-3.93,1.31-4.75,2.95c-0.84,1.66-1.09,3.57-0.81,5.73c0.32,2.37,1.18,4.16,2.58,5.4c1.41,1.23,3.21,1.7,5.43,1.4
				c0.47-0.07,1.02-0.21,1.63-0.44l-0.89-6.62l4.2-0.56L173.46,70.4z"/>
			<polygon class="st4" points="178.32,71.03 178.4,50.77 182.64,50.79 182.55,71.05 			"/>
			<polygon class="st4" points="187.89,71.3 189.73,51.12 193.94,51.5 192.1,71.67 			"/>
			<path class="st4" d="M204.6,68.74c-0.79-0.18-1.42-0.63-1.89-1.34c-0.45-0.69-0.59-1.45-0.41-2.27c0.18-0.82,0.62-1.45,1.33-1.9
				c0.71-0.45,1.48-0.59,2.27-0.4c0.8,0.16,1.43,0.61,1.88,1.31c0.46,0.69,0.59,1.47,0.42,2.28c-0.18,0.82-0.62,1.45-1.34,1.9
				C206.15,68.77,205.39,68.91,204.6,68.74"/>
			<polygon class="st4" points="214.56,76.46 221.95,57.59 225.9,59.14 219.55,75.33 228.06,78.67 227.01,81.34 			"/>
			<path class="st4" d="M237.19,77.73l5.37,3.23l1.49-8.54L237.19,77.73z M227.68,81.46l17.2-13.3l3.66,2.22l-3.74,21.39l-3.74-2.25
				l0.99-5.68l-7.19-4.33l-4.55,3.54L227.68,81.46z"/>
			<path class="st4" d="M259.59,103.73c-0.92-0.29-1.67-0.62-2.26-0.94c-0.59-0.33-1.23-0.72-1.92-1.21
				c-0.69-0.49-1.33-0.99-1.95-1.53c-2.65-2.36-3.97-4.86-3.96-7.5c0.01-2.66,1.04-5.13,3.09-7.43c2.05-2.33,4.39-3.65,7.01-3.98
				c2.62-0.34,5.32,0.74,8.12,3.22c1.64,1.46,3.11,3.1,4.41,4.95l-2.18,2.46c-0.54-0.98-1.01-1.73-1.39-2.3
				c-0.39-0.57-0.79-1.1-1.18-1.54c-0.39-0.46-0.81-0.89-1.25-1.29c-1.75-1.53-3.5-2.1-5.28-1.69c-1.77,0.42-3.4,1.47-4.85,3.1
				c-1.53,1.72-2.33,3.52-2.37,5.37c-0.05,1.87,0.8,3.57,2.57,5.14c1.48,1.31,3.3,2.26,5.49,2.83L259.59,103.73z"/>
			<path class="st4" d="M277.2,94.32l2.61,3.35l-9.78,7.63c-1.77,1.39-2.71,2.61-2.82,3.66c-0.1,1.05,0.22,2.05,0.97,3.02
				c0.74,0.94,1.61,1.47,2.61,1.58c1,0.12,2.31-0.45,3.95-1.73l10.02-7.82l2.25,2.87l-9.79,7.65c-1.85,1.44-3.35,2.24-4.52,2.39
				c-1.17,0.17-2.32-0.01-3.47-0.53c-1.14-0.53-2.24-1.46-3.3-2.81c-1.03-1.32-1.71-2.62-2.02-3.9c-0.31-1.28-0.27-2.55,0.14-3.74
				c0.41-1.22,1.54-2.54,3.38-3.99L277.2,94.32z"/>
			<path class="st4" d="M273.13,122.36l3.07-1.67c0.16,1.69,0.36,2.91,0.61,3.66c0.25,0.75,0.54,1.4,0.84,1.97
				c0.56,1.04,1.21,1.68,1.95,1.94c0.74,0.25,1.43,0.21,2.08-0.14c0.5-0.28,0.87-0.64,1.12-1.14c0.25-0.48,0.38-1.46,0.4-2.9
				l0.01-1.56c0.03-2.23,0.27-3.87,0.76-4.92c0.47-1.04,1.24-1.86,2.31-2.44c1.33-0.72,2.76-0.84,4.26-0.32
				c1.51,0.5,2.78,1.71,3.82,3.63c0.79,1.43,1.46,3.16,2.03,5.17l-2.81,1.52c-0.34-2.17-0.81-3.79-1.39-4.87
				c-0.47-0.89-1.03-1.46-1.67-1.71c-0.64-0.26-1.23-0.24-1.78,0.07c-0.41,0.2-0.73,0.56-0.94,1.03c-0.22,0.45-0.34,1.4-0.36,2.86
				l-0.01,1.67c-0.03,2.56-0.3,4.32-0.81,5.3c-0.53,0.98-1.29,1.75-2.31,2.29c-1.46,0.79-3,0.91-4.64,0.37
				c-1.63-0.57-3.11-2.05-4.41-4.47C274.48,126.26,273.76,124.49,273.13,122.36"/>
			<path class="st4" d="M287.63,141.98c-0.28-0.78-0.24-1.55,0.12-2.31c0.37-0.77,0.93-1.28,1.72-1.57
				c0.79-0.28,1.55-0.22,2.32,0.14c0.75,0.36,1.27,0.93,1.54,1.72c0.28,0.77,0.24,1.53-0.12,2.29c-0.36,0.77-0.93,1.29-1.72,1.56
				c-0.79,0.3-1.56,0.24-2.32-0.12C288.42,143.31,287.91,142.74,287.63,141.98"/>
			<polygon class="st4" points="286.35,154.5 306.29,150.82 308.66,163.66 305.93,164.16 304.33,155.47 298.73,156.51 
				300.06,163.71 297.34,164.2 296.01,157.01 289.94,158.14 291.66,167.42 288.84,167.95 			"/>
			<path class="st4" d="M300.23,174.76l0.03,0.97c0.04,1.75,0.43,2.94,1.21,3.6c0.76,0.64,1.62,0.97,2.58,0.93
				c0.84-0.01,1.49-0.29,1.96-0.84c0.48-0.55,0.7-1.65,0.68-3.31l-0.03-1.48L300.23,174.76z M289.09,170.99l20.27-0.37l0.13,7.58
				c0.04,1.56-0.13,2.74-0.5,3.56c-0.37,0.82-0.95,1.48-1.72,1.97c-0.78,0.48-1.67,0.74-2.66,0.76c-1.19,0.02-2.31-0.31-3.38-0.98
				c-1.06-0.66-1.89-1.6-2.47-2.86l-9.34,6.82l-0.1-5.13l8.2-5.21l-0.04-2.33l-8.3,0.17L289.09,170.99z"/>
			
				<rect x="296.53" y="183.47" transform="matrix(0.1111 -0.9938 0.9938 0.1111 73.0658 468.9016)" class="st4" width="4.22" height="20.27"/>
			<polygon class="st4" points="287.69,199.75 307.41,204.41 304.4,217.11 301.71,216.47 303.74,207.89 298.19,206.58 296.52,213.7 
				293.82,213.07 295.5,205.93 289.51,204.52 287.34,213.72 284.54,213.07 			"/>
			<polygon class="st4" points="283.62,215.94 302.23,223.98 300.75,227.41 284.33,230.53 297.04,236.01 295.7,239.13 277.1,231.1 
				278.59,227.62 294.99,224.55 282.28,219.06 			"/>
			<path class="st4" d="M275.35,234.49l2.93,1.92c-1.42,0.95-2.41,1.71-2.93,2.27c-0.54,0.57-0.98,1.15-1.34,1.68
				c-0.64,0.98-0.9,1.87-0.77,2.62c0.13,0.79,0.5,1.37,1.12,1.77c0.47,0.31,0.98,0.46,1.53,0.45c0.55-0.01,1.46-0.36,2.75-1.03
				l1.36-0.74c1.98-1.04,3.54-1.6,4.69-1.67c1.14-0.08,2.22,0.21,3.24,0.87c1.28,0.83,2.05,2.02,2.31,3.59
				c0.27,1.58-0.19,3.26-1.38,5.09c-0.89,1.36-2.09,2.77-3.58,4.23l-2.68-1.73c1.76-1.33,2.96-2.51,3.63-3.54
				c0.56-0.84,0.79-1.61,0.72-2.3c-0.09-0.69-0.39-1.19-0.9-1.52c-0.39-0.27-0.85-0.39-1.36-0.35c-0.51,0.02-1.4,0.37-2.69,1.05
				l-1.47,0.79c-2.28,1.19-3.97,1.78-5.07,1.8c-1.11,0-2.15-0.31-3.1-0.94c-1.39-0.9-2.22-2.21-2.51-3.91
				c-0.3-1.69,0.31-3.69,1.81-6.01C272.55,237.53,273.79,236.06,275.35,234.49"/>
			<polygon class="st4" points="265.34,248.53 280.91,261.49 278.22,264.75 262.64,251.77 			"/>
			<path class="st4" d="M260.15,255.11l2.42,2.54c-1.6,0.58-2.73,1.1-3.39,1.53c-0.64,0.44-1.21,0.89-1.67,1.33
				c-0.85,0.82-1.31,1.61-1.37,2.39c-0.05,0.79,0.17,1.44,0.68,1.98c0.39,0.41,0.86,0.68,1.39,0.79c0.53,0.11,1.5-0.02,2.9-0.38
				l1.51-0.39c2.17-0.56,3.81-0.74,4.95-0.55c1.13,0.19,2.12,0.72,2.96,1.6c1.04,1.1,1.52,2.44,1.42,4.03
				c-0.1,1.58-0.94,3.14-2.52,4.63c-1.18,1.12-2.67,2.22-4.46,3.3l-2.2-2.31c2.02-0.89,3.46-1.76,4.35-2.6
				c0.73-0.7,1.13-1.39,1.21-2.08c0.08-0.68-0.1-1.25-0.52-1.7c-0.33-0.34-0.74-0.56-1.24-0.64c-0.49-0.1-1.45,0.04-2.86,0.4
				l-1.61,0.41c-2.48,0.65-4.27,0.84-5.35,0.61c-1.08-0.26-2.01-0.8-2.81-1.64c-1.14-1.2-1.65-2.66-1.54-4.38
				c0.1-1.72,1.16-3.52,3.16-5.42C256.74,257.42,258.28,256.27,260.15,255.11"/>
			<polygon class="st4" points="142.71,304.46 147.54,287.3 144.67,286.5 145.15,284.52 152.55,285.9 146.97,305.67 			"/>
			<path class="st4" d="M169.71,297.15c1.58-0.89,2.43-1.92,2.54-3.09c0.08-0.78-0.17-1.43-0.75-1.95
				c-0.58-0.52-1.36-0.83-2.33-0.92c-0.96-0.1-1.75,0.03-2.35,0.41c-0.59,0.37-0.94,0.86-0.98,1.48c-0.05,0.54,0.12,1.09,0.55,1.62
				C166.8,295.23,167.91,296.05,169.71,297.15 M166.81,299.63c-1.22,0.74-1.98,1.37-2.27,1.91c-0.3,0.55-0.48,1.1-0.53,1.68
				c-0.12,1.16,0.25,2.09,1.1,2.81c0.84,0.7,1.78,1.09,2.85,1.2c1.03,0.1,1.97-0.07,2.78-0.5c0.83-0.44,1.28-1.08,1.35-1.9
				c0.06-0.65-0.1-1.23-0.51-1.75c-0.39-0.54-1.33-1.27-2.8-2.21L166.81,299.63z M164.72,298.08c-2.02-1.48-2.94-3.1-2.76-4.89
				c0.1-0.95,0.49-1.81,1.18-2.61c0.72-0.8,1.62-1.35,2.76-1.65c1.13-0.32,2.43-0.39,3.92-0.25c2.18,0.21,3.81,0.8,4.9,1.8
				c1.09,0.98,1.57,2.11,1.45,3.41c-0.08,0.79-0.42,1.57-1.01,2.32c-0.59,0.76-1.67,1.53-3.23,2.31c3,1.78,4.41,3.81,4.18,6.06
				c-0.15,1.6-1.01,2.93-2.56,3.98c-1.54,1.05-3.65,1.44-6.31,1.17c-2.69-0.25-4.63-0.99-5.86-2.23c-1.23-1.23-1.77-2.58-1.63-4.04
				c0.1-1.04,0.57-2.06,1.4-3.01C161.97,299.49,163.17,298.71,164.72,298.08"/>
			<path class="st4" d="M183.72,309.78l-0.22-2.92c1.93,0.55,3.53,0.78,4.81,0.68c1.38-0.11,2.39-0.57,3.02-1.38
				c0.61-0.81,0.89-1.73,0.8-2.76c-0.1-1.29-0.73-2.29-1.91-3c-1.17-0.72-2.91-0.98-5.21-0.8c-0.54,0.03-1.06,0.1-1.59,0.24
				l-0.78-10.11l12.65-0.97l0.25,3.18l-9.43,0.72l0.14,4.35c3.43-0.26,6.02,0.19,7.76,1.35c1.76,1.18,2.71,2.73,2.86,4.67
				c0.14,1.8-0.48,3.38-1.86,4.71c-1.38,1.34-3.52,2.12-6.41,2.34c-0.71,0.06-1.34,0.07-1.91,0.04
				C186.12,310.11,185.13,309.98,183.72,309.78"/>
			<path class="st4" d="M214.67,298.84c-0.34-1.34-0.95-2.3-1.81-2.86c-0.86-0.58-1.81-0.72-2.85-0.44
				c-0.96,0.25-1.74,0.8-2.33,1.67c-0.58,0.87-0.73,1.85-0.45,2.95c0.3,1.13,0.88,2.09,1.74,2.88c0.87,0.78,1.95,0.99,3.26,0.66
				c1.01-0.27,1.76-0.82,2.22-1.68C214.91,301.15,214.99,300.09,214.67,298.84 M206.1,296.35c0.38-0.77,0.79-1.35,1.2-1.79
				c0.43-0.41,0.94-0.78,1.51-1.12c0.57-0.31,1.19-0.58,1.84-0.73c1.18-0.31,2.35-0.34,3.53-0.1c1.18,0.25,2.17,0.77,3,1.56
				c0.82,0.78,1.38,1.76,1.68,2.92c0.32,1.25,0.3,2.51-0.06,3.77c-0.35,1.26-1.01,2.36-1.97,3.28c-0.96,0.91-2.27,1.58-3.95,2.01
				c-2.88,0.75-5.27,0.36-7.14-1.14c-1.88-1.49-3.2-3.65-3.92-6.45c-0.53-2.02-0.63-3.95-0.33-5.8c0.29-1.84,1.02-3.4,2.14-4.66
				c1.13-1.27,2.86-2.21,5.2-2.82c0.73-0.17,1.46-0.33,2.19-0.44c0.72-0.11,1.88-0.19,3.46-0.26l0.74,2.83
				c-2.16-0.2-4.01-0.1-5.55,0.3c-1.13,0.3-2.02,0.81-2.65,1.54c-0.64,0.73-1.06,1.7-1.24,2.92
				C205.59,293.42,205.69,294.8,206.1,296.35"/>
			<polygon class="st4" points="239.29,280.94 244.6,281.34 240.54,284.89 241.89,290.11 237.34,287.17 232.88,290.11 
				234.09,284.89 230.04,281.34 235.39,280.94 237.34,276.24 			"/>
			<path class="st4" d="M235.27,284.54c-0.05-0.24-0.12-0.49-0.12-0.77c0-0.8,0.37-1.34,0.95-1.82l-5.45-0.4L235.27,284.54z"/>
			<path class="st4" d="M237.34,286c-0.94,0-1.61-0.57-2.05-1.42l-1.99,4.99L237.34,286z"/>
			<path class="st4" d="M236.15,281.91c0.39-0.21,0.77-0.32,1.21-0.32c0.43,0,0.84,0.13,1.2,0.32l-1.22-5.03L236.15,281.91z"/>
			<path class="st4" d="M239.47,284.58c-0.39,0.83-1.08,1.35-2.04,1.42l4.07,3.58L239.47,284.58z"/>
			<path class="st4" d="M238.61,281.95c0.59,0.47,0.99,1.08,0.99,1.87c0,0.23-0.03,0.49-0.12,0.72l4.48-2.99L238.61,281.95z"/>
			<polygon class="st4" points="118.77,280.94 124.08,281.34 120.03,284.89 121.37,290.11 116.83,287.17 112.36,290.11 
				113.57,284.89 109.52,281.34 114.87,280.94 116.83,276.24 			"/>
			<path class="st4" d="M114.76,284.54c-0.06-0.24-0.11-0.49-0.11-0.77c0-0.8,0.36-1.34,0.94-1.82l-5.44-0.4L114.76,284.54z"/>
			<path class="st4" d="M116.83,286c-0.95,0-1.62-0.57-2.05-1.42l-1.99,4.99L116.83,286z"/>
			<path class="st4" d="M115.63,281.91c0.39-0.21,0.76-0.32,1.2-0.32c0.44,0,0.84,0.13,1.2,0.32l-1.21-5.03L115.63,281.91z"/>
			<path class="st4" d="M118.95,284.58c-0.39,0.83-1.09,1.35-2.05,1.42l4.06,3.58L118.95,284.58z"/>
			<path class="st4" d="M118.1,281.95c0.58,0.47,0.98,1.08,0.98,1.87c0,0.23-0.04,0.49-0.11,0.72l4.48-2.99L118.1,281.95z"/>
		</g>
	</g>
</g>
</svg>
